<?xml version="1.0" encoding="UTF-8"?>
<svg version="1.1" xmlns="http://www.w3.org/2000/svg" width="500" height="500">
<path d="M0 0 C165 0 330 0 500 0 C500 165 500 330 500 500 C335 500 170 500 0 500 C0 335 0 170 0 0 Z " fill="#F9F9F9" transform="translate(0,0)"/>
<path d="M0 0 C9.00883674 4.83400996 15.10511998 10.96504155 18.30078125 20.78125 C20.65973269 31.6403337 19.90121879 42.37400202 14 52 C11.85599642 54.60026881 9.60662682 56.86662243 7 59 C8.30965717 61.84017827 9.75619847 64.0731217 11.8203125 66.41796875 C12.35527344 67.03220703 12.89023438 67.64644531 13.44140625 68.27929688 C13.99699219 68.90900391 14.55257812 69.53871094 15.125 70.1875 C21 76.87585812 21 76.87585812 21 78 C3.36180216 79.63783266 3.36180216 79.63783266 -2.109375 75.84375 C-7 69.63229927 -7 69.63229927 -7 66 C-8.12277344 66.03480469 -9.24554688 66.06960937 -10.40234375 66.10546875 C-22.57475497 66.37466761 -31.70776036 65.66491545 -41 57 C-48.8211467 48.61261643 -50.58689396 39.98739486 -50.5559082 28.80957031 C-50.19926221 19.18312539 -46.61683256 12.11618818 -39.625 5.5 C-28.1727043 -3.80499025 -13.67222031 -6.15365584 0 0 Z " fill="#0F212A" transform="translate(98,178)"/>
<path d="M0 0 C37.32352941 0 37.32352941 0 45.3125 5.125 C49.70744984 9.82657425 52.13870873 14.96609283 52.5625 21.4375 C52.25293575 27.53271325 49.55055387 33.14231137 45.5078125 37.671875 C39.29116684 43.14767688 33.56250719 43.26858625 25.6875 43.125 C22.490625 43.08375 19.29375 43.0425 16 43 C16 51.25 16 59.5 16 68 C10.72 68 5.44 68 0 68 C0 45.56 0 23.12 0 0 Z " fill="#0D1E28" transform="translate(127,176)"/>
<path d="M0 0 C16.78466559 -1.67508255 16.78466559 -1.67508255 21.8671875 2.16796875 C23.89160713 5.02342446 25.47388578 7.852905 27 11 C27.98342238 12.57298654 28.98127413 14.13714396 30 15.6875 C30.99 17.3271875 30.99 17.3271875 32 19 C35.28792753 15.12705834 37.79377356 11.10320549 40.25 6.6875 C41.4875 4.480625 42.725 2.27375 44 0 C50.27 0 56.54 0 63 0 C58.78654153 8.07579539 54.09074279 15.71852603 49.13964844 23.3605957 C48.6346582 24.146521 48.12966797 24.93244629 47.609375 25.7421875 C46.9282666 26.79188721 46.9282666 26.79188721 46.23339844 27.86279297 C45.82637695 28.56807129 45.41935547 29.27334961 45 30 C44.52546387 30.75909668 44.05092773 31.51819336 43.56201172 32.30029297 C42.66678427 35.22022731 42.66678427 35.22022731 44.70068359 38.48925781 C45.58126338 39.82306324 46.48194426 41.14373665 47.3984375 42.453125 C48.10185776 43.50436554 48.10185776 43.50436554 48.81948853 44.57684326 C50.32103401 46.81324333 51.84706582 49.03156634 53.375 51.25 C54.89008042 53.48618199 56.40009168 55.72571275 57.90908813 57.96600342 C58.85028863 59.35923379 59.79614103 60.74933437 60.74691772 62.13604736 C64 66.89460783 64 66.89460783 64 68 C47.21533441 69.67508255 47.21533441 69.67508255 42.1328125 65.83203125 C40.10793138 62.97592462 38.52144552 60.15038448 37 57 C36.05958615 55.44733755 35.10351816 53.90393463 34.125 52.375 C33.073125 50.704375 33.073125 50.704375 32 49 C31.34 48.67 30.68 48.34 30 48 C29.75378906 48.67546875 29.50757813 49.3509375 29.25390625 50.046875 C27.73769621 53.6177622 25.88122652 56.89802797 23.9375 60.25 C23.57333984 60.88679688 23.20917969 61.52359375 22.83398438 62.1796875 C20.14074248 66.85925752 20.14074248 66.85925752 19 68 C17.58429877 68.08651611 16.164405 68.10704904 14.74609375 68.09765625 C13.89208984 68.09443359 13.03808594 68.09121094 12.15820312 68.08789062 C11.26037109 68.07951172 10.36253906 68.07113281 9.4375 68.0625 C8.53580078 68.05798828 7.63410156 68.05347656 6.70507812 68.04882812 C4.46998686 68.03700225 2.23502563 68.0205222 0 68 C6.52443997 56.37374232 13.80121766 45.21507117 21 34 C17.06358382 26.48927476 12.43916645 19.51497137 7.6875 12.5 C6.23028065 10.34560244 4.77653019 8.18896985 3.32421875 6.03125 C2.68572998 5.08830078 2.04724121 4.14535156 1.3894043 3.17382812 C0 1 0 1 0 0 Z " fill="#0F2029" transform="translate(282,176)"/>
<path d="M0 0 C6.30857659 -1.06902658 12.82503016 -2.14135017 19 0 C24.47293813 4.56871357 28.23099788 11.49533771 31 18 C31 18.66 31 19.32 31 20 C31.66 20 32.32 20 33 20 C33.24621094 19.32453125 33.49242187 18.6490625 33.74609375 17.953125 C35.26230379 14.3822378 37.11877348 11.10197203 39.0625 7.75 C39.60874023 6.79480469 39.60874023 6.79480469 40.16601562 5.8203125 C42.85925752 1.14074248 42.85925752 1.14074248 44 0 C45.34267413 -0.08631874 46.68974322 -0.10706473 48.03515625 -0.09765625 C48.84404297 -0.09443359 49.65292969 -0.09121094 50.48632812 -0.08789062 C51.33646484 -0.07951172 52.18660156 -0.07113281 53.0625 -0.0625 C53.91650391 -0.05798828 54.77050781 -0.05347656 55.65039062 -0.04882812 C57.76695663 -0.03700373 59.88348685 -0.01906769 62 0 C60.28047833 4.9986095 57.5175245 9.28250375 54.75 13.75 C54.25854492 14.55405273 53.76708984 15.35810547 53.26074219 16.18652344 C50.31761248 20.97518003 47.2825105 25.63677222 43.828125 30.078125 C42.56532916 33.00876441 43.17455525 34.96949392 44 38 C45.31161889 40.40270969 45.31161889 40.40270969 47.0625 42.625 C49.8667082 46.44472393 52.56997532 50.29920433 55.1875 54.25 C55.82042969 55.20390625 56.45335937 56.1578125 57.10546875 57.140625 C57.73066406 58.08421875 58.35585938 59.0278125 59 60 C59.73863281 61.06734375 60.47726562 62.1346875 61.23828125 63.234375 C63 66 63 66 63 68 C49.89583681 69.42666293 49.89583681 69.42666293 44 68 C39.99092915 64.60812943 38.17205537 60.71394719 36 56 C35.03811972 54.55717958 34.04453769 53.13415514 33 51.75 C32.34 50.8425 31.68 49.935 31 49 C27.71207247 52.87294166 25.20622644 56.89679451 22.75 61.3125 C20.89375 64.6228125 20.89375 64.6228125 19 68 C12.73 68 6.46 68 0 68 C1.53195824 64.1701044 2.9309523 61.31427225 5.1171875 57.91015625 C5.72433594 56.96076172 6.33148438 56.01136719 6.95703125 55.03320312 C7.58996094 54.05287109 8.22289062 53.07253906 8.875 52.0625 C9.81279297 50.59780273 9.81279297 50.59780273 10.76953125 49.10351562 C11.68412109 47.67749023 11.68412109 47.67749023 12.6171875 46.22265625 C13.49262207 44.85584717 13.49262207 44.85584717 14.38574219 43.46142578 C15.70800492 41.44523508 17.08616954 39.50403207 18.5078125 37.55859375 C20.23485535 35.20660927 20.23485535 35.20660927 19.72070312 33.0612793 C18.99367683 30.98191512 18.13392934 29.32205725 16.9609375 27.4609375 C16.5484375 26.80262939 16.1359375 26.14432129 15.7109375 25.46606445 C15.27007812 24.77601318 14.82921875 24.08596191 14.375 23.375 C13.70210937 22.3080188 13.70210937 22.3080188 13.015625 21.21948242 C9.95677491 16.40233975 6.76696141 11.70384441 3.375 7.11328125 C1.8876717 4.82735906 0.9315279 2.55722323 0 0 Z " fill="#0E1F29" transform="translate(213,176)"/>
<path d="M0 0 C5.47735799 4.5993844 9.43467388 10.35725921 10.3125 17.56640625 C10.67496013 25.71043227 8.54698319 31.95511184 3.5625 38.375 C-1.7701292 43.83769333 -7.83426167 46.02459769 -15.4375 46.3125 C-22.85826895 46.11091714 -29.60763583 43.1049539 -35 38 C-40.59421656 30.45628373 -41.02251405 22.1141397 -40 13 C-37.0186517 4.91841657 -31.80449783 0.24209899 -24.1875 -3.3125 C-15.61906309 -5.16059423 -7.75012221 -4.23704997 0 0 Z " fill="#11222A" transform="translate(139,280)"/>
<path d="M0 0 C5.76912799 3.58544153 10.34025925 8.95989662 12.36328125 15.46875 C13.44411456 24.1495481 12.51237136 31.29123045 7.36328125 38.46875 C2.65533285 43.86232196 -2.93643557 46.84358918 -10.015625 47.78515625 C-17.56108686 48.15121152 -24.23535928 46.46626913 -29.97265625 41.41015625 C-36.59899845 34.31733869 -38.13821486 28.2780045 -37.94140625 18.65625 C-37.30699788 12.0193624 -34.62564365 8.14068763 -29.82421875 3.65625 C-20.74926519 -3.65042217 -10.64483838 -4.75367583 0 0 Z " fill="#102129" transform="translate(335.63671875,278.53125)"/>
<path d="M0 0 C0.79019531 -0.01611328 1.58039063 -0.03222656 2.39453125 -0.04882812 C8.78338797 -0.05414331 12.88291549 1.38326449 17.8125 5.625 C21.37573136 9.76605266 23.125 12.80615272 23.125 18.3125 C20.5191111 18.44744246 17.92017889 18.54652299 15.3125 18.625 C14.57451172 18.66689453 13.83652344 18.70878906 13.07617188 18.75195312 C10.91796875 18.80078125 10.91796875 18.80078125 7.125 18.3125 C5.3359375 15.8515625 5.3359375 15.8515625 4.125 13.3125 C0.62221894 12.24033361 0.62221894 12.24033361 -2.875 12.3125 C-5.22473818 14.21005144 -5.22473818 14.21005144 -5 17.4375 C-4.95875 18.38625 -4.9175 19.335 -4.875 20.3125 C-0.06463061 22.85916615 4.6860509 24.90913873 9.8125 26.75 C16.40182822 29.22862462 19.23620123 31.47930185 23.125 37.3125 C23.81072317 42.83815296 23.87317537 47.76072887 21.4375 52.8125 C16.56999334 58.07466936 12.46142852 60.99426636 5.234375 61.68359375 C-10.64826822 62.13344477 -10.64826822 62.13344477 -16.875 56.3125 C-20.65830797 51.85520605 -21.875 49.27785986 -21.875 43.3125 C-16.595 43.3125 -11.315 43.3125 -5.875 43.3125 C-5.215 44.9625 -4.555 46.6125 -3.875 48.3125 C-1.10399606 49.69800197 1.0584706 49.5002467 4.125 49.3125 C5.115 48.6525 6.105 47.9925 7.125 47.3125 C7.3752157 44.22884129 7.3752157 44.22884129 7.125 41.3125 C1.29319 38.22507117 -4.604045 35.86124573 -10.82421875 33.65625 C-15.41731379 31.63317101 -18.20208775 29.49589741 -20.6875 25.125 C-22.52755096 19.21746796 -23.04350328 14.60622865 -20.1875 9 C-14.02682484 1.84029643 -9.1252052 -0.03685463 0 0 Z " fill="#102029" transform="translate(68.875,263.6875)"/>
<path d="M0 0 C5.49078478 3.05283319 8.92140191 7.34522167 10.8125 13.375 C10.97746802 16.05510949 11.04628795 18.6249358 11.0078125 21.30078125 C11.0049826 22.04837204 11.00215271 22.79596283 10.99923706 23.56620789 C10.98809469 25.9401388 10.96300162 28.31368425 10.9375 30.6875 C10.92746249 32.3027289 10.91833799 33.91796376 10.91015625 35.53320312 C10.88988131 39.48073461 10.85072275 43.42743882 10.8125 47.375 C5.8625 47.375 0.9125 47.375 -4.1875 47.375 C-4.21328125 45.18359375 -4.2390625 42.9921875 -4.265625 40.734375 C-4.30406579 38.60615328 -4.34921895 36.4781722 -4.39501953 34.35009766 C-4.42320088 32.87397804 -4.44442966 31.39770831 -4.45849609 29.92138672 C-4.47996698 27.79576943 -4.52663043 25.67195121 -4.578125 23.546875 C-4.59907227 22.2690918 -4.62001953 20.99130859 -4.64160156 19.67480469 C-5.27085493 15.87114255 -6.15762033 14.67612059 -9.1875 12.375 C-11.16485077 11.75277707 -11.16485077 11.75277707 -13.1875 11.875 C-14.1775 11.85953125 -14.1775 11.85953125 -15.1875 11.84375 C-18.16469856 12.63456837 -19.28141884 13.96880362 -21.1875 16.375 C-21.82960552 19.75421394 -21.82960552 19.75421394 -21.796875 23.546875 C-21.81341125 24.2292926 -21.82994751 24.91171021 -21.84698486 25.61480713 C-21.89539839 27.78496354 -21.91681865 29.95441972 -21.9375 32.125 C-21.96566562 33.60029552 -21.99559389 35.07555851 -22.02734375 36.55078125 C-22.1044635 40.15917396 -22.14503375 43.76536895 -22.1875 47.375 C-27.1375 47.375 -32.0875 47.375 -37.1875 47.375 C-37.1875 31.535 -37.1875 15.695 -37.1875 -0.625 C-32.2375 -0.625 -27.2875 -0.625 -22.1875 -0.625 C-21.8575 0.695 -21.5275 2.015 -21.1875 3.375 C-19.7953125 2.4159375 -19.7953125 2.4159375 -18.375 1.4375 C-12.4252684 -2.41232633 -6.42347394 -2.93192655 0 0 Z " fill="#11222A" transform="translate(393.1875,277.625)"/>
<path d="M0 0 C4.62 0 9.24 0 14 0 C14.01417969 2.10761719 14.02835938 4.21523438 14.04296875 6.38671875 C14.07362588 8.43888107 14.11270425 10.4907233 14.15258789 12.54272461 C14.17571503 13.96350702 14.19015126 15.38445958 14.19555664 16.80541992 C14.20488661 18.85442466 14.24595166 20.9007735 14.29296875 22.94921875 C14.31653442 24.79519653 14.31653442 24.79519653 14.34057617 26.6784668 C15.17583403 30.88568012 16.65549162 32.38957021 20 35 C23.80595431 35.53416903 25.99445927 35.55569356 29.375 33.6875 C32.53355013 30.40746717 32.18407982 26.69224602 32.31640625 22.36328125 C32.37924805 20.41518555 32.37924805 20.41518555 32.44335938 18.42773438 C32.48316987 17.05599239 32.52288216 15.68424756 32.5625 14.3125 C32.60570835 12.92902355 32.64932339 11.54555973 32.69335938 10.16210938 C32.79957965 6.77486286 32.90030688 3.38744491 33 0 C37.95 0 42.9 0 48 0 C48 15.84 48 31.68 48 48 C43.05 48 38.1 48 33 48 C32.67 46.35 32.34 44.7 32 43 C31.236875 43.639375 30.47375 44.27875 29.6875 44.9375 C24.16483046 49.17582779 17.68533914 48.58455552 11 48 C6.027792 45.7319753 3.6979702 42.69646664 1 38 C-0.23180134 34.30459598 -0.12412112 30.89696622 -0.09765625 27.05078125 C-0.0962413 26.27816452 -0.09482635 25.50554779 -0.09336853 24.70951843 C-0.08777466 22.24380611 -0.07522333 19.77818485 -0.0625 17.3125 C-0.05748421 15.63997527 -0.05292144 13.96744912 -0.04882812 12.29492188 C-0.03780724 8.19657954 -0.02054684 4.09830521 0 0 Z " fill="#0F2029" transform="translate(182,277)"/>
<path d="M0 0 C3.46633098 3.55521126 6 6.95902251 6 12 C3.75106046 12.10823773 1.50062425 12.18569645 -0.75 12.25 C-2.62945312 12.31960938 -2.62945312 12.31960938 -4.546875 12.390625 C-8.5941445 11.93278908 -9.39892584 10.97265618 -12 8 C-15.167832 7.66551741 -15.167832 7.66551741 -18 8 C-18.33 9.65 -18.66 11.3 -19 13 C-18.45472656 13.18175781 -17.90945313 13.36351562 -17.34765625 13.55078125 C-15.75663674 14.08112109 -14.16688197 14.61526396 -12.578125 15.15234375 C-10.93098572 15.69390318 -9.27499694 16.20968226 -7.609375 16.69140625 C-2.32473244 18.26421654 1.03667891 20.13576193 5 24 C6.74335816 27.48671632 6.43142518 31.18800436 6 35 C3.70277769 40.42979818 -0.02308304 42.72105906 -5.21875 45.08203125 C-11.63353395 47.19927033 -17.64013503 46.83539727 -23.875 44.3125 C-28.78981845 41.83311037 -31.9574593 38.56381105 -35 34 C-35.125 31.3125 -35.125 31.3125 -35 29 C-32.75165504 28.86473861 -30.50097486 28.76789196 -28.25 28.6875 C-26.99703125 28.62949219 -25.7440625 28.57148438 -24.453125 28.51171875 C-21 29 -21 29 -18.78125 31.5 C-18.1934375 32.325 -17.605625 33.15 -17 34 C-13.33200185 34.41771804 -13.33200185 34.41771804 -10 34 C-9.67 32.35 -9.34 30.7 -9 29 C-9.54527344 28.81824219 -10.09054687 28.63648438 -10.65234375 28.44921875 C-12.24179923 27.91940026 -13.83027216 27.38662875 -15.41796875 26.8515625 C-17.08010197 26.30338543 -18.74917506 25.7756094 -20.42578125 25.2734375 C-26.42995624 23.43686633 -30.4157819 21.37632715 -34 16 C-34.74998696 11.42159126 -34.42086848 7.85792422 -32.375 3.6875 C-23.91131687 -5.88982564 -10.63550174 -6.84660425 0 0 Z " fill="#12222B" transform="translate(447,280)"/>
<path d="M0 0 C5.61 0 11.22 0 17 0 C17 22.44 17 44.88 17 68 C11.39 68 5.78 68 0 68 C0 45.56 0 23.12 0 0 Z " fill="#11222B" transform="translate(187,176)"/>
<path d="M0 0 C4.59458079 2.63411117 8.20746851 5.89788505 9.640625 11.12890625 C10.53958414 18.99479872 10.70637644 26.66233608 5.640625 33.12890625 C1.10992854 37.33598153 -1.55383211 38.29576184 -7.671875 38.37890625 C-8.80238281 38.4046875 -9.93289062 38.43046875 -11.09765625 38.45703125 C-15.3734751 38.02688899 -17.87927444 36.59779393 -20.90625 33.59375 C-26.49740598 26.4958864 -25.98214871 19.85638788 -25.359375 11.12890625 C-23.90751103 6.13417858 -20.63958597 2.98238023 -16.359375 0.12890625 C-11.09387166 -1.62626153 -5.26334027 -1.94325311 0 0 Z " fill="#F6F7F8" transform="translate(90.359375,190.87109375)"/>
<path d="M0 0 C4.62 0 9.24 0 14 0 C14 3.96 14 7.92 14 12 C17.3 12 20.6 12 24 12 C24 15.96 24 19.92 24 24 C20.7 24 17.4 24 14 24 C14.33 31.59 14.66 39.18 15 47 C17.97 47 20.94 47 24 47 C24 51.29 24 55.58 24 60 C9.62622508 60.44001352 9.62622508 60.44001352 5 57 C0.82565625 52.48719595 -0.12837005 49.28889909 -0.09765625 43.23828125 C-0.09443359 42.12001953 -0.09121094 41.00175781 -0.08789062 39.84960938 C-0.07951172 38.68236328 -0.07113281 37.51511719 -0.0625 36.3125 C-0.05798828 35.13365234 -0.05347656 33.95480469 -0.04882812 32.74023438 C-0.03703273 29.82677211 -0.0205727 26.91341137 0 24 C-1.98 24 -3.96 24 -6 24 C-6 20.04 -6 16.08 -6 12 C-4.02 12 -2.04 12 0 12 C0 8.04 0 4.08 0 0 Z " fill="#0D1E27" transform="translate(243,265)"/>
<path d="M0 0 C4.62 0 9.24 0 14 0 C14 21.12 14 42.24 14 64 C9.38 64 4.76 64 0 64 C0 42.88 0 21.76 0 0 Z " fill="#0C1D26" transform="translate(157,261)"/>
<path d="M0 0 C4.95 0 9.9 0 15 0 C15 15.84 15 31.68 15 48 C10.05 48 5.1 48 0 48 C0 32.16 0 16.32 0 0 Z " fill="#11222B" transform="translate(275,277)"/>
<path d="M0 0 C3.83813374 1.70583722 5.43169237 3.15798872 7 7 C7.74341376 11.26748089 7.84214375 15.25069404 5.9375 19.20703125 C3.93307714 21.88141067 2.24086459 23.62749874 -1.00390625 24.6015625 C-5.10850979 24.89753012 -6.66927493 24.26739473 -9.9375 21.625 C-13.65082722 16.89894717 -13.5270044 12.87101396 -13 7 C-10.23346802 0.67649832 -6.70556965 -0.57806635 0 0 Z " fill="#F1F2F4" transform="translate(326,289)"/>
<path d="M0 0 C3.28150412 3.19946652 4.89892556 5.68603231 5.25 10.25 C4.9755625 14.36656251 4.26131479 16.56903963 2 20 C-0.72222985 22.20721339 -2.54689185 22.92448197 -6 23.5 C-10.02581176 22.82903137 -11.43224045 21.08131146 -14 18 C-15.96752105 14.0649579 -15.46422595 9.2894478 -15 5 C-11.12070694 -1.46548844 -6.94001264 -1.83996776 0 0 Z " fill="#F2F4F5" transform="translate(129,290)"/>
<path d="M0 0 C12.46024735 -0.41077739 12.46024735 -0.41077739 17 3 C19.34549674 6.51824511 19.57991403 7.85775694 19 12 C17.375 14.875 17.375 14.875 14 17 C9.25080919 17.42489929 4.78619334 17.22365389 0 17 C0 11.39 0 5.78 0 0 Z " fill="#EEF0F2" transform="translate(143,189)"/>
<path d="M0 0 C4.14866582 0.66674986 5.81886615 1.31264078 8.5 4.5625 C9.12437655 7.51788235 8.89289183 9.4684768 8.5 12.5625 C6.94686892 14.64138041 5.88393936 15.43595819 3.4140625 16.25 C-0.94887447 16.84562279 -2.78736232 17.04243966 -6.5625 14.5 C-8.5 11.5625 -8.5 11.5625 -9.125 8.5625 C-8.00959981 3.20857911 -5.35038244 0.85988289 0 0 Z " fill="#12222B" transform="translate(282.5,255.4375)"/>
<path d="M0 0 C0.9590625 0.4021875 0.9590625 0.4021875 1.9375 0.8125 C5.91292572 2.35399161 9.94998861 3.66956148 14 5 C15.68775516 5.56173394 17.37526589 6.12420294 19.0625 6.6875 C19.81660156 6.93886719 20.57070313 7.19023437 21.34765625 7.44921875 C21.89292969 7.63097656 22.43820312 7.81273437 23 8 C23.625 10.375 23.625 10.375 24 13 C22 15 22 15 18.625 15.375 C15 15 15 15 12.5625 13.125 C11 11 11 11 11 9 C5.72 9 0.44 9 -5 9 C-5.33 7.68 -5.66 6.36 -6 5 C-5.34 5 -4.68 5 -4 5 C-3.67 4.34 -3.34 3.68 -3 3 C-2.01979625 1.9805881 -1.02196992 0.97753644 0 0 Z " fill="#F5F8F9" transform="translate(415,300)"/>
<path d="M0 0 C12.74618834 -0.92017937 12.74618834 -0.92017937 15.8203125 1.3359375 C16.875 3 16.875 3 18 6 C16.68 6.99 15.36 7.98 14 9 C13.34 7.68 12.68 6.36 12 5 C10.35 5 8.7 5 7 5 C6.34 6.98 5.68 8.96 5 11 C1.87729874 8.48169253 1.05476902 7.2738451 0.25 3.25 C0.1675 2.1775 0.085 1.105 0 0 Z " fill="#18272F" transform="translate(412,309)"/>
<path d="M0 0 C3.47214266 0.27232491 4.7550428 0.8175428 7.1875 3.25 C7.1875 3.91 7.1875 4.57 7.1875 5.25 C11.8075 5.25 16.4275 5.25 21.1875 5.25 C21.1875 5.58 21.1875 5.91 21.1875 6.25 C20.04410156 6.29898437 18.90070313 6.34796875 17.72265625 6.3984375 C16.23174527 6.47345189 14.74086108 6.54900028 13.25 6.625 C12.11788086 6.67140625 12.11788086 6.67140625 10.96289062 6.71875 C9.03242605 6.8226315 7.10807919 7.02895614 5.1875 7.25 C4.8575 7.91 4.5275 8.57 4.1875 9.25 C0.45262223 8.7520163 -1.62487635 8.37508244 -4.8125 6.25 C-3.75054285 0.33338159 -3.75054285 0.33338159 0 0 Z " fill="#CFD4D7" transform="translate(431.8125,286.75)"/>
<path d="M0 0 C1.98 0.66 3.96 1.32 6 2 C6.625 4.375 6.625 4.375 7 7 C5 9 5 9 1.625 9.375 C-2 9 -2 9 -4.4375 7.125 C-6 5 -6 5 -6 3 C-5.195625 2.690625 -4.39125 2.38125 -3.5625 2.0625 C-1.10919595 1.23664655 -1.10919595 1.23664655 0 0 Z " fill="#E9ECEE" transform="translate(432,306)"/>
<path d="M0 0 C0.33 0.66 0.66 1.32 1 2 C0.01 2.495 0.01 2.495 -1 3 C-0.87625 3.9075 -0.7525 4.815 -0.625 5.75 C-0.74875 6.8225 -0.8725 7.895 -1 9 C-2.98689731 10.35278115 -4.98745218 11.68568305 -7 13 C-7.9688059 16.13265479 -7.9688059 16.13265479 -8 19 C-8.33 19 -8.66 19 -9 19 C-9.37497746 14.31278181 -9.48459497 10.95124198 -7.3125 6.6875 C-5.05931346 4.06893185 -2.7961879 2.01946904 0 0 Z " fill="#17262E" transform="translate(56,266)"/>
<path d="M0 0 C1.49997444 2.94952958 2.80023567 5.91489173 4 9 C1.98249041 9.5043774 -0.02789152 10.00591638 -2.0625 10.4375 C-4.29731913 10.98102599 -4.29731913 10.98102599 -7 13 C-5.35821735 8.22390502 -2.73453298 4.20617096 0 0 Z " fill="#ECEFEF" transform="translate(267,189)"/>
<path d="M0 0 C2.31 0.33 4.62 0.66 7 1 C5.5361389 5.39158329 3.02168662 5.87947433 -1 8 C-2.2077558 4.37673261 -1.54311128 3.35853631 0 0 Z " fill="#0A1D27" transform="translate(419,313)"/>
<path d="M0 0 C0.66 0 1.32 0 2 0 C3.18359375 1.64453125 3.18359375 1.64453125 4.4375 3.8125 C6.05383563 6.59421869 7.63229027 8.81176681 10 11 C6.50841798 10.35341074 3.9025144 9.03960471 1 7 C0 4 0 4 0 0 Z " fill="#E9EDEE" transform="translate(99,311)"/>
<path d="M0 0 C1.65 0 3.3 0 5 0 C3.7508258 3.45925163 2.32472205 6.14693203 0 9 C-1.125 3.375 -1.125 3.375 0 0 Z " fill="#18262C" transform="translate(270,176)"/>
<path d="M0 0 C-1.3125 1.5 -1.3125 1.5 -3 3 C-3.99 3 -4.98 3 -6 3 C-6.33 3.66 -6.66 4.32 -7 5 C-7.66 4.67 -8.32 4.34 -9 4 C-9.33 4.66 -9.66 5.32 -10 6 C-10 4.68 -10 3.36 -10 2 C-6.3558226 -0.4294516 -4.28758728 -0.16179575 0 0 Z " fill="#1A2930" transform="translate(286,256)"/>
<path d="M0 0 C1.32 0.66 2.64 1.32 4 2 C3.34 3.65 2.68 5.3 2 7 C0.68 7 -0.64 7 -2 7 C-1.34 4.69 -0.68 2.38 0 0 Z " fill="#EAF0F3" transform="translate(115,221)"/>
<path d="M0 0 C1.98 0 3.96 0 6 0 C5.67 0.99 5.34 1.98 5 3 C3.02 3.33 1.04 3.66 -1 4 C-0.67 2.68 -0.34 1.36 0 0 Z " fill="#F6F8FA" transform="translate(428,288)"/>
<path d="M0 0 C0.99 0.33 1.98 0.66 3 1 C0.525 5.455 0.525 5.455 -2 10 C-2.33 10 -2.66 10 -3 10 C-3.36923077 4.58461538 -3.36923077 4.58461538 -1.5 1.625 C-1.005 1.08875 -0.51 0.5525 0 0 Z " fill="#1F2C34" transform="translate(306,230)"/>
<path d="M0 0 C2.4375 0.75 2.4375 0.75 5 2 C5.9375 4 5.9375 4 6 6 C5.34 6.66 4.68 7.32 4 8 C0 2.25 0 2.25 0 0 Z " fill="#233138" transform="translate(412,312)"/>
<path d="M0 0 C1.98 0.495 1.98 0.495 4 1 C3 4 3 4 1 5 C0.34227572 8.02934491 0.34227572 8.02934491 0 11 C-0.33 11 -0.66 11 -1 11 C-1.0270043 9.54176788 -1.04639787 8.08339325 -1.0625 6.625 C-1.07410156 5.81289063 -1.08570313 5.00078125 -1.09765625 4.1640625 C-1 2 -1 2 0 0 Z " fill="#2D3A40" transform="translate(48,274)"/>
<path d="M0 0 C0.33 0.66 0.66 1.32 1 2 C0.360625 2.94875 -0.27875 3.8975 -0.9375 4.875 C-2.92620563 7.75287827 -2.92620563 7.75287827 -4 10 C-4.66 10 -5.32 10 -6 10 C-4.79157144 5.56909529 -3.48331435 3.01887244 0 0 Z " fill="#213036" transform="translate(305,283)"/>
<path d="M0 0 C1.32 1.32 2.64 2.64 4 4 C3.01 4.66 2.02 5.32 1 6 C0.01 5.01 -0.98 4.02 -2 3 C-1.34 2.01 -0.68 1.02 0 0 Z " fill="#E8EFF1" transform="translate(243,224)"/>
<path d="M0 0 C1 4 1 4 1 6 C0.34 6 -0.32 6 -1 6 C-1 6.66 -1 7.32 -1 8 C-2.32 8.33 -3.64 8.66 -5 9 C-3.35 6.03 -1.7 3.06 0 0 Z " fill="#26333A" transform="translate(230,215)"/>
<path d="M0 0 C-2 3 -2 3 -4.125 3.6875 C-5.053125 3.8421875 -5.053125 3.8421875 -6 4 C-6.33 3.01 -6.66 2.02 -7 1 C-4.53721199 -0.231394 -2.7204945 -0.07159196 0 0 Z " fill="#243239" transform="translate(65,264)"/>
<path d="M0 0 C2 3 2 3 2 6 C0.02 6.99 0.02 6.99 -2 8 C-2 4.79604584 -1.25664978 2.90600261 0 0 Z " fill="#182730" transform="translate(268,231)"/>
<path d="M0 0 C2.62187494 1.04874998 3.79371361 1.64931313 5.25 4.125 C5.4975 4.74375 5.745 5.3625 6 6 C3.11562221 4.70700306 1.12780579 3.34058637 -1 1 C-0.67 0.67 -0.34 0.34 0 0 Z " fill="#1C282F" transform="translate(258,219)"/>
</svg>
