<?xml version="1.0" encoding="UTF-8"?>
<svg version="1.1" xmlns="http://www.w3.org/2000/svg" width="1280" height="514">
<path d="M0 0 C0.55848633 0.38349609 1.11697266 0.76699219 1.69238281 1.16210938 C32.97499955 22.96798859 55.21045247 58.20463476 62.35693359 95.60620117 C62.97274646 99.06278555 63.49852817 102.52476512 64 106 C64.13277344 106.91652344 64.26554687 107.83304688 64.40234375 108.77734375 C68.29497903 142.53129077 60.67809228 177.32221972 43.08984375 206.36328125 C41.69543477 208.88219378 41.69543477 208.88219378 42.75605774 210.97973633 C43.96645535 212.94552076 45.15366947 214.36669496 46.81323242 215.9609375 C47.37689011 216.50830566 47.94054779 217.05567383 48.52128601 217.61962891 C49.12656631 218.19890137 49.73184662 218.77817383 50.35546875 219.375 C51.6299758 220.61936316 52.90405162 221.86416814 54.17773438 223.109375 C56.18759097 225.06328586 58.20107515 227.01304256 60.22241211 228.95507812 C62.17366356 230.83404345 64.10913435 232.72813691 66.04296875 234.625 C66.65432175 235.20427246 67.26567474 235.78354492 67.89555359 236.38037109 C69.57495117 238.0390625 69.57495117 238.0390625 72 241 C71.76149242 244.63070747 69.94580562 246.44246519 67.46166992 248.95825195 C66.71386765 249.72196609 65.96606537 250.48568024 65.19560242 251.27253723 C64.38210831 252.08623276 63.5686142 252.89992828 62.73046875 253.73828125 C61.89792068 254.57844284 61.06537262 255.41860443 60.20759583 256.28422546 C58.44526045 258.05736683 56.67892917 259.82654424 54.90893555 261.59204102 C52.19455747 264.30544506 49.50219886 267.039464 46.81054688 269.77539062 C45.09765621 271.49348658 43.3835054 273.21032733 41.66796875 274.92578125 C40.86054733 275.74959793 40.05312592 276.57341461 39.22123718 277.42219543 C38.46397842 278.17014877 37.70671967 278.91810211 36.92651367 279.6887207 C36.26334641 280.35394241 35.60017914 281.01916412 34.91691589 281.70454407 C33 283 33 283 30.94361877 282.87469482 C28.83247595 281.92460846 27.59799585 280.9606958 25.97558594 279.31616211 C25.13516754 278.47540382 25.13516754 278.47540382 24.277771 277.61766052 C23.68595032 277.01035599 23.09412964 276.40305145 22.484375 275.77734375 C21.86854553 275.15726944 21.25271606 274.53719513 20.6182251 273.89833069 C18.65499365 271.91832095 16.70245564 269.92813081 14.75 267.9375 C13.41996252 266.59241465 12.08924121 265.24800512 10.7578125 263.90429688 C7.49722463 260.61065094 4.24618812 257.30783661 1 254 C-2.11845225 255.19447316 -5.01750832 256.48515519 -7.8984375 258.171875 C-39.43756284 276.35541693 -74.10091938 282.94454928 -110 275 C-110.6904541 274.84966309 -111.3809082 274.69932617 -112.09228516 274.54443359 C-129.49734026 270.55655159 -147.27287308 262.45896137 -161 251 C-162.26263672 250.01580078 -162.26263672 250.01580078 -163.55078125 249.01171875 C-172.09893008 242.3314507 -180.13835753 235.42960689 -187 227 C-187.74894531 226.10023438 -188.49789062 225.20046875 -189.26953125 224.2734375 C-215.6367557 191.47011889 -226.65221226 150.05628566 -222.22851562 108.39746094 C-217.99124872 73.66825956 -202.94226362 43.37039865 -179 18 C-178.32710937 17.26265625 -177.65421875 16.5253125 -176.9609375 15.765625 C-131.01598421 -32.76050544 -53.71701668 -37.28013138 0 0 Z M-142.55419922 64.29248047 C-160.01855627 84.91823414 -165.30468669 110.6066714 -164 137 C-161.87061163 161.96630716 -149.63781463 184.48472732 -130.73046875 200.87109375 C-111.26741627 216.04614898 -91.26141834 220.89361591 -67 219 C-58.37923148 217.77711782 -50.53862692 214.23830638 -43 210 C-47.33115075 204.70637131 -52.0237029 199.9131356 -56.94824219 195.17675781 C-59.37928497 192.80121126 -60.90875026 191.27374923 -62 188 C-59.31153874 183.89429879 -55.61975806 180.38759305 -51.8125 177.3125 C-49.09041405 175.07434044 -47.16336522 172.76015562 -45 170 C-44.01 169.34 -43.02 168.68 -42 168 C-42 167.34 -42 166.68 -42 166 C-41.01 165.67 -40.02 165.34 -39 165 C-39 164.34 -39 163.68 -39 163 C-38.01 162.67 -37.02 162.34 -36 162 C-34.28547658 160.30846256 -34.28547658 160.30846256 -32.625 158.25 C-32.01269531 157.53457031 -31.40039062 156.81914062 -30.76953125 156.08203125 C-30.18558594 155.39496094 -29.60164062 154.70789063 -29 154 C-27.38752545 152.10479019 -25.92315852 150.61129498 -24 149 C-20.34950463 149.29508872 -18.64357418 151.02370224 -16.1796875 153.59765625 C-15.47972656 154.31630859 -14.77976563 155.03496094 -14.05859375 155.77539062 C-13.33800781 156.53013672 -12.61742187 157.28488281 -11.875 158.0625 C-10.43944384 159.55776514 -8.99955784 161.04888944 -7.5546875 162.53515625 C-6.92030762 163.199104 -6.28592773 163.86305176 -5.63232422 164.54711914 C-4.11521888 166.22161868 -4.11521888 166.22161868 -2 166 C8.31798161 139.16509131 9.30930316 112.88276981 -2 86 C-12.07255154 63.90366965 -29.3337773 46.71707343 -52.125 38.0625 C-86.30867795 26.9239982 -119.20084864 38.2505446 -142.55419922 64.29248047 Z " fill="#0B1D27" transform="translate(239,121)"/>
<path d="M0 0 C1.58663452 0.00845947 1.58663452 0.00845947 3.20532227 0.01708984 C23.65981544 0.33146309 42.2880734 6.33434809 59.4375 17.3125 C60.35660156 17.89386719 61.27570313 18.47523438 62.22265625 19.07421875 C86.23543622 35.37744639 103.19281455 61.68754066 108.75 90.125 C112.79520216 121.55310912 106.76762697 151.20320676 87.53125 176.69140625 C84.01883067 181.08848343 80.35039854 185.26763187 76.4375 189.3125 C75.36822266 190.42044922 75.36822266 190.42044922 74.27734375 191.55078125 C53.49563497 211.61956692 24.87873697 221.01865419 -3.58984375 220.59375 C-22.17644608 219.87431503 -36.44496145 211.03491937 -50.24731445 199.16381836 C-51.18182182 198.36070473 -51.18182182 198.36070473 -52.13520813 197.54136658 C-52.60621445 197.13584061 -53.07722076 196.73031464 -53.5625 196.3125 C-53.56581015 196.92910429 -53.56912029 197.54570858 -53.57253075 198.18099785 C-53.65367665 213.16976624 -53.74574119 228.15842411 -53.85002708 243.14704704 C-53.90019397 250.39537308 -53.94663629 257.64368757 -53.984375 264.89208984 C-54.01726935 271.20824473 -54.05708618 277.5243111 -54.10529006 283.84036839 C-54.13058069 287.1860849 -54.15235422 290.53174251 -54.16584396 293.87752914 C-54.18262445 297.6084246 -54.21163947 301.33903285 -54.24365234 305.06982422 C-54.24581253 306.18472229 -54.24797272 307.29962036 -54.25019836 308.44830322 C-54.26136185 309.46075104 -54.27252533 310.47319885 -54.2840271 311.5163269 C-54.29232324 312.84094342 -54.29232324 312.84094342 -54.30078697 314.19231987 C-54.5625 316.3125 -54.5625 316.3125 -56.5625 318.3125 C-58.92225647 318.55973816 -58.92225647 318.55973816 -61.91430664 318.55541992 C-63.59098167 318.56003487 -63.59098167 318.56003487 -65.30152893 318.56474304 C-66.51300095 318.55755753 -67.72447296 318.55037201 -68.97265625 318.54296875 C-70.2104332 318.54251053 -71.44821014 318.54205231 -72.72349548 318.5415802 C-76.01608047 318.5377786 -79.30847359 318.52475824 -82.60101318 318.50811768 C-85.95601647 318.49466164 -89.3109863 318.49784184 -92.66601562 318.49804688 C-95.20573117 318.49313168 -97.74544515 318.48730335 -100.28515625 318.48046875 C-101.4986525 318.47935593 -102.71214874 318.4782431 -103.9624176 318.47709656 C-105.0770488 318.47071671 -106.19167999 318.46433685 -107.34008789 318.45776367 C-108.32666885 318.45395187 -109.31324982 318.45014008 -110.32972717 318.44621277 C-112.5625 318.3125 -112.5625 318.3125 -113.5625 317.3125 C-113.66058657 315.65578531 -113.68805566 313.99485899 -113.68834114 312.33524323 C-113.69094889 311.25053285 -113.69355664 310.16582248 -113.69624341 309.04824209 C-113.69401268 307.84175213 -113.69178196 306.63526217 -113.68948364 305.39221191 C-113.69104363 304.12207827 -113.69260362 302.85194463 -113.69421089 301.54332209 C-113.69840862 298.00161373 -113.69631153 294.45993211 -113.69322467 290.91822362 C-113.69097258 287.10496029 -113.69444922 283.29170173 -113.69720459 279.47843933 C-113.70166334 272.00185181 -113.70068535 264.5252743 -113.69779195 257.04868639 C-113.69553833 250.97510914 -113.69522521 244.9015347 -113.69631577 238.82795715 C-113.696469 237.96524402 -113.69662223 237.10253089 -113.69678011 236.21367493 C-113.69709982 234.4613752 -113.69742403 232.70907546 -113.6977527 230.95677572 C-113.7006078 214.50536089 -113.69732 198.05395162 -113.69195233 181.60253769 C-113.68748427 167.47053666 -113.68826019 153.33854385 -113.69287109 139.20654297 C-113.69821633 122.81608301 -113.70033311 106.42562793 -113.69725883 90.03516722 C-113.69694026 88.28912576 -113.69662589 86.5430843 -113.69631577 84.79704285 C-113.69616149 83.93784025 -113.69600721 83.07863766 -113.69584826 82.19339862 C-113.69498295 76.1234635 -113.69644628 70.05353145 -113.69879532 63.9835968 C-113.70159295 56.59162162 -113.70085583 49.19965707 -113.69551457 41.80768311 C-113.69287706 38.03244957 -113.69187333 34.25723378 -113.69516373 30.48200035 C-113.69866876 26.39891398 -113.69449853 22.31587286 -113.68948364 18.23278809 C-113.69171436 17.02629813 -113.69394509 15.81980817 -113.69624341 14.57675791 C-113.69363566 13.49204753 -113.69102791 12.40733716 -113.68834114 11.28975677 C-113.68809761 9.87402319 -113.68809761 9.87402319 -113.68784916 8.42968893 C-113.5625 6.3125 -113.5625 6.3125 -112.5625 5.3125 C-110.78258076 5.21879376 -108.99893261 5.19505729 -107.21655273 5.19897461 C-105.50489174 5.19908791 -105.50489174 5.19908791 -103.75865173 5.19920349 C-102.5170076 5.20436478 -101.27536346 5.20952606 -99.99609375 5.21484375 C-98.10045433 5.21696617 -98.10045433 5.21696617 -96.16651917 5.21913147 C-92.80125111 5.22379418 -89.4360501 5.2327852 -86.07080078 5.24383545 C-82.6390033 5.25405154 -79.20719891 5.25862951 -75.77539062 5.26367188 C-69.03773936 5.2747262 -62.30012889 5.29200363 -55.5625 5.3125 C-54.9025 11.5825 -54.2425 17.8525 -53.5625 24.3125 C-52.53125 23.178125 -51.5 22.04375 -50.4375 20.875 C-36.7564623 7.21817653 -19.20156116 -0.10755456 0 0 Z M-31.5625 67.3125 C-32.27921875 67.93253906 -32.9959375 68.55257812 -33.734375 69.19140625 C-41.18612271 76.12489331 -46.02492061 84.47253386 -48.5625 94.3125 C-48.83900391 95.38371094 -48.83900391 95.38371094 -49.12109375 96.4765625 C-51.87710679 114.18333653 -48.9125106 131.27749712 -38.4375 145.9375 C-31.18284785 154.8287765 -21.19590574 161.24239639 -9.80078125 162.83984375 C5.69752545 164.34701169 19.02435126 161.49281695 31.56640625 151.92578125 C41.25131752 143.11053548 48.73811326 130.64006745 49.56054688 117.31958008 C49.90123503 107.68371424 50.07851321 98.39292161 46.4375 89.3125 C46.10878906 88.4771875 45.78007812 87.641875 45.44140625 86.78125 C39.91069922 74.38021833 29.32962523 64.46440041 16.8125 59.4375 C12.34014983 57.85505591 8.20082299 56.5873071 3.4375 56.3125 C2.138125 56.209375 0.83875 56.10625 -0.5 56 C-12.06246768 56.19798746 -22.87354122 59.67059201 -31.5625 67.3125 Z " fill="#0C1D27" transform="translate(465.5625,180.6875)"/>
<path d="M0 0 C8.91001927 -0.11593167 17.81977831 -0.20473378 26.73038769 -0.25906086 C30.86813718 -0.28513747 35.00537008 -0.32049885 39.14282227 -0.37719727 C43.13695146 -0.4315881 47.13058431 -0.46143511 51.12505531 -0.47438622 C52.6477267 -0.48361359 54.17037139 -0.50163316 55.69283104 -0.52865028 C57.82861043 -0.56503836 59.96234839 -0.56994183 62.09838867 -0.56762695 C63.3130632 -0.57873001 64.52773773 -0.58983307 65.77922058 -0.60127258 C72.02431613 0.56459575 74.99965352 6.17974423 78.4375 11.125 C79.3097562 12.36820029 80.1835424 13.61032805 81.05859375 14.8515625 C81.52765137 15.51704102 81.99670898 16.18251953 82.47998047 16.86816406 C85.27042995 20.78178515 88.13990792 24.63715415 91 28.5 C95.31101324 34.34006567 99.62179241 40.18013979 103.875 46.0625 C104.2978125 46.64 104.720625 47.2175 105.15625 47.8125 C108 51.76860119 108 51.76860119 108 54 C112.24996252 50.02247098 115.53177246 45.68954807 118.875 40.9375 C124.36743318 33.22478941 129.9918548 25.62432609 135.71044922 18.07788086 C136.29842285 17.29936768 136.88639648 16.52085449 137.4921875 15.71875 C138.06936523 14.955625 138.64654297 14.1925 139.24121094 13.40625 C141.7277082 10.00440144 144.035513 6.4857683 146.32861328 2.95117188 C148.32809024 0.61698844 149.0198748 0.49600631 152 0 C154.2306981 -0.08759059 156.46387578 -0.11765949 158.69628906 -0.11352539 C159.36011597 -0.11367142 160.02394287 -0.11381744 160.70788574 -0.1139679 C162.8938325 -0.11327332 165.07969319 -0.10550231 167.265625 -0.09765625 C168.78448439 -0.09579045 170.30334438 -0.09436731 171.82220459 -0.09336853 C175.81377839 -0.0895561 179.80531562 -0.0797367 183.796875 -0.06866455 C187.8723908 -0.05842303 191.94791253 -0.05386504 196.0234375 -0.04882812 C204.01564175 -0.03811327 212.00781632 -0.02105216 220 0 C219.26652271 3.24172551 218.30925004 5.2480233 216.296875 7.9140625 C215.73548828 8.66558594 215.17410156 9.41710937 214.59570312 10.19140625 C213.98662109 10.99449219 213.37753906 11.79757813 212.75 12.625 C211.46273223 14.34574893 210.17629243 16.06711753 208.890625 17.7890625 C208.23771484 18.66079102 207.58480469 19.53251953 206.91210938 20.43066406 C204.06502618 24.25634122 201.2809399 28.12611804 198.5 32 C193.46089856 39.00284633 188.35785628 45.95614592 183.23046875 52.89453125 C179.28584454 58.23857868 175.38044926 63.60920685 171.5 69 C166.84611201 75.46241968 162.1579009 81.89848247 157.4375 88.3125 C156.85355469 89.10720703 156.26960938 89.90191406 155.66796875 90.72070312 C155.11625 91.46900391 154.56453125 92.21730469 153.99609375 92.98828125 C153.22434814 94.04136475 153.22434814 94.04136475 152.43701172 95.11572266 C151 97 151 97 148.53515625 99.73046875 C146.73095474 101.87721484 146.73095474 101.87721484 147.23510742 104.39111328 C148.03671732 107.12523499 148.98637559 108.75536404 150.703125 111.01171875 C151.26451172 111.76001953 151.82589844 112.50832031 152.40429688 113.27929688 C153.01337891 114.07400391 153.62246094 114.86871094 154.25 115.6875 C155.53731831 117.39909312 156.8237569 119.11134819 158.109375 120.82421875 C158.76228516 121.68966309 159.41519531 122.55510742 160.08789062 123.44677734 C162.94408388 127.26062681 165.72326581 131.12812493 168.5 135 C174.22652825 142.95863567 180.03622421 150.85410121 185.859375 158.7421875 C190.62458868 165.19801123 195.3418007 171.6875612 200.01953125 178.20703125 C201.13787584 179.76312505 202.2563689 181.31911215 203.375 182.875 C203.92897461 183.64739014 204.48294922 184.41978027 205.05371094 185.21557617 C207.65976744 188.83149862 210.291962 192.4111772 213.05859375 195.90625 C213.52539551 196.49680176 213.99219727 197.08735352 214.47314453 197.69580078 C215.72936098 199.27076555 216.99899029 200.83500554 218.26953125 202.3984375 C220 205 220 205 220 209 C211.04658368 209.30238548 202.09494552 209.5327603 193.13752174 209.67355824 C188.97704307 209.74116989 184.82007728 209.83269483 180.66162109 209.98071289 C176.64124021 210.12290605 172.62421546 210.19987213 168.60151291 210.23340416 C167.0741426 210.25726605 165.54693877 210.30387486 164.02101517 210.37449074 C152.41368565 210.88984685 152.41368565 210.88984685 148.3897419 207.73921394 C144.98397213 204.20874517 142.51779906 200.18706923 140 196 C138.82520965 194.38815819 137.63562128 192.78674283 136.41796875 191.20703125 C135.33964075 189.7432951 134.26282044 188.27844705 133.1875 186.8125 C132.60492432 186.02149902 132.02234863 185.23049805 131.42211914 184.41552734 C128.38401318 180.28206654 125.37131274 176.1321023 122.390625 171.95703125 C121.52014526 170.74019653 121.52014526 170.74019653 120.63208008 169.4987793 C119.53383917 167.96035597 118.43966159 166.41902057 117.3503418 164.87426758 C114.49708108 160.87638215 111.58840252 157.35795465 108 154 C107.74863281 154.54398438 107.49726562 155.08796875 107.23828125 155.6484375 C99.04875908 171.20077929 86.64053707 185.4401409 76.25 199.5625 C75.6413208 200.39023926 75.0326416 201.21797852 74.40551758 202.07080078 C73.84372803 202.83247559 73.28193848 203.59415039 72.703125 204.37890625 C72.20458008 205.0551001 71.70603516 205.73129395 71.19238281 206.42797852 C70 208 70 208 69 209 C66.79132169 209.09432985 64.57958479 209.11742431 62.36889648 209.11352539 C61.67624695 209.11367142 60.98359741 209.11381744 60.2699585 209.1139679 C57.97030554 209.11326874 55.67073263 209.10547628 53.37109375 209.09765625 C51.78068588 209.09579208 50.19027743 209.09436817 48.59986877 209.09336853 C44.4060407 209.08954329 40.21224705 209.07971295 36.01843262 209.06866455 C31.74211086 209.05845057 27.46578356 209.05387094 23.18945312 209.04882812 C14.79295292 209.03809069 6.39648074 209.02101419 -2 209 C-0.60629144 205.36785981 0.8704204 202.58559382 3.2734375 199.515625 C3.92731445 198.67153076 4.58119141 197.82743652 5.25488281 196.95776367 C5.95452148 196.06420166 6.65416016 195.17063965 7.375 194.25 C12.47433591 187.65451666 17.48782686 181.03101443 22.25 174.1875 C26.0649911 168.70962991 29.96885125 163.32095986 34 158 C38.58092663 151.94955133 42.99691609 145.80259641 47.34619141 139.58398438 C51.82323054 133.2019775 56.44187447 126.929461 61.10498047 120.68237305 C62.75233838 118.46588841 64.38017397 116.23666986 66 114 C66.58813477 113.20078125 67.17626953 112.4015625 67.78222656 111.578125 C68.62092285 110.39476562 68.62092285 110.39476562 69.4765625 109.1875 C69.98525879 108.47980469 70.49395508 107.77210938 71.01806641 107.04296875 C72.18122422 105.07056454 72.18122422 105.07056454 71.81518555 102.97363281 C70.92071554 100.80804565 69.86646954 99.12417875 68.48046875 97.234375 C67.95880127 96.51733398 67.43713379 95.80029297 66.8996582 95.06152344 C66.334646 94.2987207 65.76963379 93.53591797 65.1875 92.75 C64.60508545 91.95368164 64.0226709 91.15736328 63.42260742 90.33691406 C59.09902529 84.4411734 54.71103903 78.59369433 50.30908203 72.75634766 C45.88038042 66.87331475 41.60433321 60.88945299 37.34228516 54.88525391 C29.68699988 44.13332359 21.89639049 33.48104674 14.05126953 22.8671875 C8.95723321 15.96568282 3.95648796 9.00075374 -1 2 C-0.67 1.34 -0.34 0.68 0 0 Z " fill="#0C1E27" transform="translate(946,186)"/>
<path d="M0 0 C8.91001927 -0.11593167 17.81977831 -0.20473378 26.73038769 -0.25906086 C30.86813718 -0.28513747 35.00537008 -0.32049885 39.14282227 -0.37719727 C43.13695146 -0.4315881 47.13058431 -0.46143511 51.12505531 -0.47438622 C52.6477267 -0.48361359 54.17037139 -0.50163316 55.69283104 -0.52865028 C57.82861043 -0.56503836 59.96234839 -0.56994183 62.09838867 -0.56762695 C63.3130632 -0.57873001 64.52773773 -0.58983307 65.77922058 -0.60127258 C71.25582753 0.42113013 73.95187917 4.70118645 77.09375 9.01171875 C77.91721924 10.13513672 77.91721924 10.13513672 78.75732422 11.28125 C79.33240723 12.0753125 79.90749023 12.869375 80.5 13.6875 C81.10730957 14.51894531 81.71461914 15.35039062 82.34033203 16.20703125 C84.23228503 18.80081409 86.11723236 21.39954371 88 24 C88.59006836 24.8142041 89.18013672 25.6284082 89.78808594 26.46728516 C92.55269406 30.28437352 95.31208539 34.10517011 98.06640625 37.9296875 C101.69345066 42.96587575 105.34369888 47.98501296 109 53 C113.38687487 48.91315169 116.74320857 44.3929214 120.1875 39.5 C124.09836484 34.00963041 128.03754735 28.5624067 132.1875 23.25 C136.17012797 18.14340035 139.94910594 12.92480638 143.60229492 7.57910156 C145.79543797 4.43180185 147.68206896 1.94585812 151 0 C154.1005249 -0.36076355 154.1005249 -0.36076355 157.78808594 -0.34057617 C158.79845665 -0.34123329 158.79845665 -0.34123329 159.82923889 -0.34190369 C162.04791604 -0.33981946 164.26583043 -0.31650699 166.484375 -0.29296875 C168.02565091 -0.28737146 169.56693217 -0.28310199 171.10821533 -0.28010559 C175.15910656 -0.26866718 179.20967361 -0.23920889 183.26043701 -0.20599365 C187.39623632 -0.17527098 191.53208815 -0.16159557 195.66796875 -0.14648438 C203.77879438 -0.114338 211.88935683 -0.06315407 220 0 C219.29222955 3.09042688 218.43703127 5.09554471 216.55078125 7.66015625 C215.78374878 8.71251465 215.78374878 8.71251465 215.0012207 9.78613281 C214.44394287 10.53733398 213.88666504 11.28853516 213.3125 12.0625 C212.7352417 12.85108398 212.1579834 13.63966797 211.56323242 14.45214844 C209.71538603 16.97300204 207.85853419 19.48701835 206 22 C204.7914256 23.6391452 203.5830892 25.27846591 202.375 26.91796875 C200.59263206 29.33602681 198.80976401 31.75370379 197.02490234 34.16992188 C192.81146407 39.87867849 188.66571919 45.63135621 184.5546875 51.4140625 C178.01685001 60.60643828 171.40014785 69.74452436 164.72900391 78.84057617 C163.83463128 80.06054171 162.94233622 81.28203338 162.05224609 82.50512695 C159.68821694 85.7446416 157.27815198 88.93594592 154.80078125 92.08984375 C154.28016113 92.7650708 153.75954102 93.44029785 153.22314453 94.13598633 C152.22207296 95.43260479 151.2066659 96.71831853 150.17529297 97.9909668 C147.56050788 101.32394305 147.56050788 101.32394305 147.3125 105.38671875 C149.82488188 109.27742125 152.52028144 112.99338174 155.3125 116.6875 C156.58930472 118.39786814 157.86532862 120.10881941 159.140625 121.8203125 C159.78708984 122.6855957 160.43355469 123.55087891 161.09960938 124.44238281 C163.95780517 128.28905023 166.76322032 132.17284812 169.5625 136.0625 C170.36083252 137.16996582 170.36083252 137.16996582 171.17529297 138.29980469 C173.3197145 141.27539233 175.4620394 144.25248689 177.60449219 147.22949219 C189.47870169 163.72345493 201.48212458 180.10478006 213.84692383 196.2355957 C214.49040771 197.07566162 215.1338916 197.91572754 215.796875 198.78125 C216.36760742 199.52439453 216.93833984 200.26753906 217.52636719 201.03320312 C221 205.66931743 221 205.66931743 221 209 C211.95959532 209.11592622 202.91944706 209.20473108 193.87846088 209.25906086 C189.68018119 209.28513862 185.48241055 209.32050223 181.28442383 209.37719727 C177.23194068 209.43158381 173.17994667 209.46143425 169.12712669 209.47438622 C167.58212777 209.48361434 166.03715517 209.50163536 164.49236488 209.52865028 C162.32546086 209.56503239 160.16056924 209.56994204 157.9934082 209.56762695 C156.76096878 209.57873001 155.52852936 209.58983307 154.25874329 209.60127258 C147.97976958 208.44273556 145.01778569 202.84534164 141.5625 197.875 C140.6888996 196.63052675 139.81381441 195.38709489 138.9375 194.14453125 C138.46828125 193.4788916 137.9990625 192.81325195 137.515625 192.12744141 C134.16235605 187.42054939 130.71036366 182.78514246 127.26855469 178.14282227 C124.39944965 174.26984454 121.55159239 170.3864575 118.765625 166.453125 C118.26538818 165.75243896 117.76515137 165.05175293 117.24975586 164.32983398 C116.31281539 163.01474326 115.38353073 161.69415404 114.46313477 160.36743164 C113.38143485 158.85683613 112.19879545 157.41945869 111 156 C110.01 156 109.02 156 108 156 C106.57964674 157.38874612 106.57964674 157.38874612 105.3203125 159.3046875 C104.81032715 160.02414551 104.3003418 160.74360352 103.77490234 161.48486328 C103.23043457 162.2736084 102.6859668 163.06235352 102.125 163.875 C100.95345829 165.53669336 99.78157375 167.19814507 98.609375 168.859375 C98.01060547 169.71466797 97.41183594 170.56996094 96.79492188 171.45117188 C94.03212915 175.37439767 91.19966578 179.24623401 88.375 183.125 C83.59576711 189.71009037 78.94505952 196.37303304 74.42529297 203.13916016 C71.21405004 207.89297498 71.21405004 207.89297498 69 209 C66.78397356 209.09195619 64.56509793 209.11750018 62.34716797 209.11352539 C61.32260498 209.11374443 61.32260498 209.11374443 60.27734375 209.1139679 C58.0155929 209.11327023 55.753924 209.10548465 53.4921875 209.09765625 C51.92562912 209.09579155 50.35907016 209.09436789 48.79251099 209.09336853 C44.66610102 209.08954743 40.53972616 209.0797206 36.41333008 209.06866455 C32.20394363 209.0584417 27.99455153 209.05386903 23.78515625 209.04882812 C15.52342138 209.03809798 7.26171505 209.02102642 -1 209 C-0.2240041 204.05230471 1.91865928 201.15428679 5.0625 197.375 C6.07831015 196.11838828 7.09262348 194.86056517 8.10546875 193.6015625 C8.60353027 192.98571289 9.1015918 192.36986328 9.61474609 191.73535156 C12.9061195 187.61214356 15.93032619 183.28883504 19 179 C21.03912759 176.16483392 23.0817024 173.33216183 25.125 170.5 C25.95427002 169.34999512 25.95427002 169.34999512 26.80029297 168.17675781 C30.83320358 162.59272774 34.90669805 157.03987133 39 151.5 C44.09199212 144.60718999 49.15527504 137.69510462 54.14501953 130.7277832 C56.962481 126.79661314 59.81796914 122.90244061 62.73828125 119.046875 C63.34663818 118.23355713 63.95499512 117.42023926 64.58178711 116.58227539 C65.75145794 115.02021941 66.93279139 113.46680897 68.12719727 111.92358398 C71.12510597 108.03429174 71.12510597 108.03429174 72.1171875 103.375 C70.65090013 100.25785761 68.8113148 97.55337786 66.75 94.8125 C65.83715413 93.567771 64.9243982 92.32297603 64.01171875 91.078125 C63.52364746 90.41876953 63.03557617 89.75941406 62.53271484 89.08007812 C60.40094132 86.18700543 58.30566195 83.26820015 56.20800781 80.3503418 C51.23100335 73.43053337 46.20884024 66.54467138 41.15991211 59.67724609 C34.82772962 51.05562201 28.58857278 42.36644301 22.33398438 33.68847656 C21.22822853 32.15458142 20.12219127 30.6208891 19.01586914 29.08740234 C17.93085817 27.58314223 16.84669638 26.07826921 15.76342773 24.57275391 C13.11936311 20.90464528 10.45344923 17.25649382 7.73828125 13.640625 C7.22410645 12.95250732 6.70993164 12.26438965 6.18017578 11.55541992 C5.20940468 10.25931189 4.23280766 8.9675401 3.24951172 7.6809082 C0 3.33378635 0 3.33378635 0 0 Z " fill="#0B1D26" transform="translate(690,186)"/>
<path d="M0 0 C1.13787964 -0.00315216 2.27575928 -0.00630432 3.44812012 -0.009552 C4.6866272 -0.00752777 5.92513428 -0.00550354 7.20117188 -0.00341797 C8.46255981 -0.00437469 9.72394775 -0.00533142 11.02355957 -0.00631714 C13.69689325 -0.00699922 16.37013624 -0.00564076 19.04345703 -0.00097656 C22.47698878 0.00472073 25.91044237 0.00144152 29.34397125 -0.00454903 C32.6088743 -0.00902309 35.87376781 -0.0058943 39.13867188 -0.00341797 C40.37717896 -0.0054422 41.61568604 -0.00746643 42.89172363 -0.009552 C44.02960327 -0.00639984 45.16748291 -0.00324768 46.33984375 0 C47.34720581 0.00079559 48.35456787 0.00159119 49.39245605 0.00241089 C51.66992188 0.12939453 51.66992188 0.12939453 52.66992188 1.12939453 C52.76996976 3.7951808 52.80432329 6.43512772 52.79690552 9.10144043 C52.79846551 9.94688463 52.8000255 10.79232882 52.80163276 11.66339254 C52.80564642 14.51861365 52.80245171 17.37378233 52.79931641 20.22900391 C52.80067029 22.26691214 52.80245014 24.30482014 52.80462646 26.34272766 C52.80920239 31.8942175 52.80741059 37.44568885 52.80424738 42.99717903 C52.8017246 48.79300107 52.80406109 54.58882146 52.80563354 60.38464355 C52.80745548 70.11971319 52.8050483 79.85477526 52.80029297 89.58984375 C52.7948503 100.86254976 52.79661294 112.13523768 52.80211937 123.40794325 C52.80664982 133.06734863 52.80730139 142.72674855 52.80468071 152.38615465 C52.80311755 158.16366402 52.8029252 163.94116488 52.80621719 169.71867371 C52.80909492 175.14895161 52.80712204 180.57920608 52.80132294 186.00948143 C52.79999481 188.0086329 52.80039034 190.00778632 52.8025856 192.00693703 C52.80529504 194.72376799 52.80191853 197.44052261 52.79690552 200.15734863 C52.79913624 200.95917997 52.80136696 201.7610113 52.80366528 202.58714056 C52.78407171 208.0152447 52.78407171 208.0152447 51.66992188 209.12939453 C49.89546178 209.22833231 48.11705936 209.25738546 46.33984375 209.25878906 C45.20196411 209.26194122 44.06408447 209.26509338 42.89172363 209.26834106 C41.65321655 209.26631683 40.41470947 209.2642926 39.13867188 209.26220703 C37.87728394 209.26316376 36.615896 209.26412048 35.31628418 209.2651062 C32.6429505 209.26578828 29.96970751 209.26442982 27.29638672 209.25976562 C23.86285497 209.25406834 20.42940138 209.25734754 16.9958725 209.26333809 C13.73096945 209.26781215 10.46607594 209.26468337 7.20117188 209.26220703 C5.96266479 209.26423126 4.72415771 209.26625549 3.44812012 209.26834106 C2.31024048 209.2651889 1.17236084 209.26203674 0 209.25878906 C-1.00736206 209.25799347 -2.01472412 209.25719788 -3.0526123 209.25637817 C-5.33007812 209.12939453 -5.33007812 209.12939453 -6.33007812 208.12939453 C-6.43012601 205.46360826 -6.46447954 202.82366134 -6.45706177 200.15734863 C-6.45862176 199.31190444 -6.46018175 198.46646024 -6.46178901 197.59539652 C-6.46580267 194.74017541 -6.46260796 191.88500674 -6.45947266 189.02978516 C-6.46082654 186.99187692 -6.46260639 184.95396893 -6.46478271 182.9160614 C-6.46935864 177.36457156 -6.46756684 171.81310021 -6.46440363 166.26161003 C-6.46188085 160.465788 -6.46421734 154.6699676 -6.46578979 148.87414551 C-6.46761173 139.13907587 -6.46520455 129.4040138 -6.46044922 119.66894531 C-6.45500655 108.39623931 -6.45676919 97.12355138 -6.46227562 85.85084581 C-6.46680607 76.19144043 -6.46745764 66.53204051 -6.46483696 56.87263441 C-6.4632738 51.09512504 -6.46308145 45.31762419 -6.46637344 39.54011536 C-6.46925117 34.10983746 -6.46727829 28.67958299 -6.46147919 23.24930763 C-6.46015106 21.25015616 -6.46054659 19.25100274 -6.46274185 17.25185204 C-6.46545129 14.53502107 -6.46207478 11.81826645 -6.45706177 9.10144043 C-6.45929249 8.29960909 -6.46152321 7.49777776 -6.46382153 6.6716485 C-6.44097909 0.34349387 -6.25086306 0.0049368 0 0 Z " fill="#0A1B25" transform="translate(606.330078125,185.87060546875)"/>
<path d="M0 0 C6.31185028 4.40143862 11.23781662 10.11947383 12.6328125 17.8359375 C13.49681458 28.22830051 13.04175188 36.0161534 6.2578125 44.0859375 C-0.40403602 51.16328592 -6.93003535 54.75931737 -16.8046875 55.2734375 C-25.6736682 54.88238897 -33.12799998 51.23648902 -39.41796875 45.08203125 C-45.66701444 37.8812271 -47.25975837 31.09469006 -46.9140625 21.59765625 C-45.82838894 14.12977314 -42.60867944 7.56655096 -37.1171875 2.3359375 C-25.79574295 -6.00098681 -12.26313382 -6.96546001 0 0 Z " fill="#0C1D26" transform="translate(646.3671875,109.1640625)"/>
<path d="M0 0 C8.92736048 -0.06951349 17.85462778 -0.12281799 26.78219986 -0.15543652 C30.92765106 -0.17109187 35.07291709 -0.19232757 39.21826172 -0.22631836 C43.21883718 -0.25891675 47.21923453 -0.276854 51.21993256 -0.28463173 C52.74617059 -0.2901744 54.27239889 -0.30099794 55.7985611 -0.31719017 C57.93655963 -0.33897148 60.07382241 -0.34196673 62.21191406 -0.34057617 C64.03725677 -0.35056892 64.03725677 -0.35056892 65.8994751 -0.36076355 C69.22809462 0.0265401 70.58882715 0.73730149 73 3 C72.67 3.66 72.34 4.32 72 5 C71.01 4.01 71.01 4.01 70 3 C67.08497733 2.70620173 67.08497733 2.70620173 63.62255859 2.77294922 C62.64188667 2.77251114 62.64188667 2.77251114 61.6414032 2.77206421 C59.47694704 2.77345935 57.31283364 2.7890288 55.1484375 2.8046875 C53.64914132 2.80841698 52.1498427 2.81126426 50.65054321 2.81326294 C46.70163257 2.82090452 42.75286871 2.8405574 38.80401611 2.8626709 C34.77561428 2.8831181 30.74718876 2.89226224 26.71875 2.90234375 C18.81243259 2.92380289 10.90623455 2.95794505 3 3 C3.33 4.32 3.66 5.64 4 7 C2 5.1875 2 5.1875 0 3 C0 2.01 0 1.02 0 0 Z " fill="#747575" transform="translate(690,186)"/>
<path d="M0 0 C18.81 0 37.62 0 57 0 C58.66413655 3.3282731 57.81867406 6.99733973 57.5625 10.625 C57.51029297 11.42679688 57.45808594 12.22859375 57.40429688 13.0546875 C57.27451629 15.03679103 57.13790265 17.01844499 57 19 C56.67 19 56.34 19 56 19 C56 13.39 56 7.78 56 2 C37.19 2 18.38 2 -1 2 C-0.67 1.34 -0.34 0.68 0 0 Z " fill="#48494F" transform="translate(601,186)"/>
<path d="M0 0 C1.01037071 -0.00065712 1.01037071 -0.00065712 2.04115295 -0.00132751 C4.25983011 0.00075671 6.4777445 0.02406918 8.69628906 0.04760742 C10.23756497 0.05320471 11.77884623 0.05747418 13.32012939 0.06047058 C17.37102062 0.07190899 21.42158767 0.10136728 25.47235107 0.13458252 C29.60815038 0.16530519 33.74400221 0.1789806 37.87988281 0.1940918 C45.99070844 0.22623817 54.10127089 0.27742211 62.21191406 0.34057617 C61.83691406 2.27807617 61.83691406 2.27807617 61.21191406 4.34057617 C60.55191406 4.67057617 59.89191406 5.00057617 59.21191406 5.34057617 C59.21191406 4.68057617 59.21191406 4.02057617 59.21191406 3.34057617 C58.37919479 3.34057617 57.54647552 3.34057617 56.68852234 3.34057617 C34.19631958 3.34057617 11.70411682 3.34057617 -10.78808594 3.34057617 C-7.29371632 0.0613816 -4.70421575 -0.02575301 0 0 Z " fill="#5B5C5C" transform="translate(847.7880859375,185.659423828125)"/>
<path d="M0 0 C0 0.99 0 1.98 0 3 C-17.16 3 -34.32 3 -52 3 C-51.67 2.34 -51.34 1.68 -51 1 C-44.70119306 0.85663838 -38.40236287 0.7143335 -32.10351562 0.57275391 C-29.9619086 0.52449325 -27.82030695 0.47599309 -25.67871094 0.42724609 C-22.59571707 0.35711299 -19.5127047 0.28784881 -16.4296875 0.21875 C-15.47633514 0.19687622 -14.52298279 0.17500244 -13.54074097 0.15246582 C-9.02604103 0.05208866 -4.51619333 -0.02629516 0 0 Z " fill="#1D2C32" transform="translate(409,496)"/>
<path d="M0 0 C0.99 0.33 1.98 0.66 3 1 C4.54897725 1.11425138 6.10211766 1.17617915 7.6550293 1.20532227 C8.59577805 1.22526749 9.53652679 1.24521271 10.50578308 1.26576233 C11.51836685 1.28247482 12.53095062 1.29918732 13.57421875 1.31640625 C14.61318802 1.33718735 15.65215729 1.35796844 16.72261047 1.37937927 C20.04417253 1.44480656 23.36581416 1.50372821 26.6875 1.5625 C28.9381593 1.60569169 31.18881052 1.64930619 33.43945312 1.69335938 C38.9595511 1.80048098 44.47972837 1.90226016 50 2 C50 2.33 50 2.66 50 3 C32.84 3 15.68 3 -2 3 C-1.34 2.01 -0.68 1.02 0 0 Z " fill="#06121D" transform="translate(603,392)"/>
<path d="M0 0 C0.67095703 0.58007812 0.67095703 0.58007812 1.35546875 1.171875 C7.61353835 7.0217462 7.61353835 7.0217462 15 11 C15 10.34 15 9.68 15 9 C15.66 9.33 16.32 9.66 17 10 C17.12375 10.61875 17.2475 11.2375 17.375 11.875 C18.19821471 14.67393003 19.60184644 15.45280415 22 17 C17.33871328 16.48588749 14.67614105 14.58212907 11 11.75 C9.989375 10.98171875 8.97875 10.2134375 7.9375 9.421875 C5.09826894 7.0810196 2.48090974 4.71805552 0 2 C0 1.34 0 0.68 0 0 Z " fill="#050F15" transform="translate(414,376)"/>
<path d="M0 0 C5.27294563 2.99599183 7.18026522 5.66264487 10 11 C10.66 11.33 11.32 11.66 12 12 C12 12.66 12 13.32 12 14 C12.66 14 13.32 14 14 14 C13.67 15.32 13.34 16.64 13 18 C12.43796875 17.29230469 11.8759375 16.58460938 11.296875 15.85546875 C9.76246174 13.94789036 8.21017085 12.05455882 6.640625 10.17578125 C5.85171875 9.23089844 5.0628125 8.28601563 4.25 7.3125 C3.45078125 6.35988281 2.6515625 5.40726563 1.828125 4.42578125 C0 2 0 2 0 0 Z " fill="#151B1F" transform="translate(218,178)"/>
<path d="M0 0 C0.99 0 1.98 0 3 0 C3 0.66 3 1.32 3 2 C3.66 2 4.32 2 5 2 C5 1.34 5 0.68 5 0 C5.66 0 6.32 0 7 0 C7.66 2.64 8.32 5.28 9 8 C6 8 6 8 4.39453125 6.7578125 C3.87246094 6.21898437 3.35039062 5.68015625 2.8125 5.125 C2.28269531 4.59132813 1.75289062 4.05765625 1.20703125 3.5078125 C0 2 0 2 0 0 Z " fill="#373F43" transform="translate(183,316)"/>
<path d="M0 0 C4.32504836 1.65863505 7.09418825 4.871041 10.25 8.125 C11.08144531 8.96998047 11.08144531 8.96998047 11.9296875 9.83203125 C13.29104485 11.21686028 14.64614859 12.60783204 16 14 C15.67 14.66 15.34 15.32 15 16 C14.34 16 13.68 16 13 16 C12.34 14.68 11.68 13.36 11 12 C10.34 12 9.68 12 9 12 C7.99260254 10.33779419 6.99477045 8.66979326 6 7 C4.0667546 4.60692896 2.04570957 2.2972855 0 0 Z " fill="#0E141A" transform="translate(535,207)"/>
<path d="M0 0 C3.3 0.66 6.6 1.32 10 2 C10 2.33 10 2.66 10 3 C8.37681021 3.36237263 6.7513642 3.71465157 5.125 4.0625 C4.22007812 4.25972656 3.31515625 4.45695313 2.3828125 4.66015625 C0 5 0 5 -2 4 C-1.34 2.68 -0.68 1.36 0 0 Z " fill="#202C32" transform="translate(491,184)"/>
<path d="M0 0 C2.00720923 0.28674418 4.0085944 0.61866701 6 1 C5.34 2.65 4.68 4.3 4 6 C2.68 6 1.36 6 0 6 C-0.38218767 4.34385343 -0.71395102 2.67542976 -1 1 C-0.67 0.67 -0.34 0.34 0 0 Z " fill="#13212C" transform="translate(1019,379)"/>
<path d="M0 0 C0.99 0 1.98 0 3 0 C2.48594831 4.96916636 1.76615118 9.29026351 0 14 C-0.33 14 -0.66 14 -1 14 C-0.67 9.38 -0.34 4.76 0 0 Z " fill="#21282F" transform="translate(570,312)"/>
<path d="M0 0 C0.99 0 1.98 0 3 0 C2.67 2.64 2.34 5.28 2 8 C1.01 8 0.02 8 -1 8 C-1.66 6.68 -2.32 5.36 -3 4 C-1.6875 2 -1.6875 2 0 0 Z " fill="#3B454A" transform="translate(179,305)"/>
<path d="M0 0 C-0.33 0.99 -0.66 1.98 -1 3 C-7.93 2.505 -7.93 2.505 -15 2 C-15 1.67 -15 1.34 -15 1 C-9.94997778 -0.03590199 -5.12583611 -0.10251672 0 0 Z " fill="#2A3337" transform="translate(150,97)"/>
<path d="M0 0 C-3.85756507 2.15305957 -6.55129785 3.39253254 -11 3 C-10.67 2.01 -10.34 1.02 -10 0 C-2.25 -1.125 -2.25 -1.125 0 0 Z " fill="#1B252D" transform="translate(503,394)"/>
<path d="M0 0 C0.33 1.32 0.66 2.64 1 4 C-2 6 -2 6 -4.1875 5.625 C-4.785625 5.41875 -5.38375 5.2125 -6 5 C-3.375 1.125 -3.375 1.125 0 0 Z " fill="#1B2B2F" transform="translate(1077,213)"/>
<path d="M0 0 C1.32 0.99 2.64 1.98 4 3 C3.67 3.99 3.34 4.98 3 6 C1.35 6 -0.3 6 -2 6 C-1.34 4.02 -0.68 2.04 0 0 Z " fill="#192328" transform="translate(1163,389)"/>
<path d="M0 0 C0.66 0.66 1.32 1.32 2 2 C1.21625 2.598125 0.4325 3.19625 -0.375 3.8125 C-3.14574323 5.91085249 -3.14574323 5.91085249 -5 9 C-5.6875 7.25 -5.6875 7.25 -6 5 C-4.2426201 1.92458518 -3.42054006 1.14018002 0 0 Z " fill="#1B252B" transform="translate(960,374)"/>
<path d="M0 0 C-0.66 1.65 -1.32 3.3 -2 5 C-2.66 5 -3.32 5 -4 5 C-4.33 5.66 -4.66 6.32 -5 7 C-5.33 6.01 -5.66 5.02 -6 4 C-6.66 3.34 -7.32 2.68 -8 2 C-2.25 0 -2.25 0 0 0 Z " fill="#1F2830" transform="translate(188,335)"/>
<path d="M0 0 C0.99 0.66 1.98 1.32 3 2 C3 2.66 3 3.32 3 4 C2.01 4 1.02 4 0 4 C-0.66 4.66 -1.32 5.32 -2 6 C-2.66 4.68 -3.32 3.36 -4 2 C-2.68 1.34 -1.36 0.68 0 0 Z " fill="#1D2C32" transform="translate(195,322)"/>
<path d="M0 0 C3.04105488 1.52052744 4.71466648 2.48121179 6.375 5.5 C7 8 7 8 6 11 C4.9944239 9.54550599 3.99569565 8.08627557 3 6.625 C2.443125 5.81289062 1.88625 5.00078125 1.3125 4.1640625 C0 2 0 2 0 0 Z " fill="#1A2124" transform="translate(731,243)"/>
<path d="M0 0 C0.99 0 1.98 0 3 0 C3.66 1.65 4.32 3.3 5 5 C4.34 5 3.68 5 3 5 C2.34 5.99 1.68 6.98 1 8 C0 7 0 7 -0.0625 3.4375 C-0.041875 2.303125 -0.02125 1.16875 0 0 Z " fill="#1E2B30" transform="translate(554,229)"/>
<path d="M0 0 C0.66 0.33 1.32 0.66 2 1 C2 1.66 2 2.32 2 3 C0.03852126 4.38938077 -1.96166576 5.7260411 -4 7 C-4.66 6.34 -5.32 5.68 -6 5 C-4.02 3.35 -2.04 1.7 0 0 Z " fill="#1F282C" transform="translate(203,282)"/>
<path d="M0 0 C0.75 1.75 0.75 1.75 1 4 C-0.9375 6.25 -0.9375 6.25 -3 8 C-3.33 6.35 -3.66 4.7 -4 3 C-2.68 2.01 -1.36 1.02 0 0 Z " fill="#1C252A" transform="translate(1124,241)"/>
<path d="M0 0 C2.64 0 5.28 0 8 0 C8.33 0.66 8.66 1.32 9 2 C6.29120665 3.35439668 3.99066732 3.06501451 1 3 C0.67 2.01 0.34 1.02 0 0 Z " fill="#09151B" transform="translate(495,187)"/>
<path d="M0 0 C0.66 0 1.32 0 2 0 C1.52797514 4.24822374 -0.96655518 6.19989709 -4 9 C-4.66 8.67 -5.32 8.34 -6 8 C-4.625 6 -4.625 6 -3 4 C-2.34 4 -1.68 4 -1 4 C-0.67 2.68 -0.34 1.36 0 0 Z " fill="#060D14" transform="translate(651,150)"/>
<path d="M0 0 C1.32 0 2.64 0 4 0 C2.25 4.875 2.25 4.875 0 6 C-0.66 4.68 -1.32 3.36 -2 2 C-1.34 1.34 -0.68 0.68 0 0 Z " fill="#051019" transform="translate(894,203)"/>
<path d="M0 0 C1.125 3.75 1.125 3.75 0 6 C-1.64363134 6.72159424 -3.31050386 7.39351421 -5 8 C-3.62845496 5.04590299 -2.01136276 2.55991624 0 0 Z " fill="#030F14" transform="translate(702,375)"/>
<path d="M0 0 C0.99 0 1.98 0 3 0 C2.67 1.32 2.34 2.64 2 4 C0.35 4.33 -1.3 4.66 -3 5 C-1.6875 2.5 -1.6875 2.5 0 0 Z " fill="#06131A" transform="translate(1067,224)"/>
<path d="M0 0 C0.66 0 1.32 0 2 0 C2 0.99 2 1.98 2 3 C-1.33333333 6 -1.33333333 6 -4 6 C-2.84826645 3.53199953 -1.95216435 1.95216435 0 0 Z " fill="#3F484C" transform="translate(610,111)"/>
</svg>
