<?xml version="1.0" encoding="UTF-8"?>
<svg version="1.1" xmlns="http://www.w3.org/2000/svg" width="1280" height="486">
<path d="M0 0 C27.58705545 24.51143647 45.38305324 59.42100662 48.0703125 96.40527344 C49.7120684 126.3175684 45.49126828 155.57445956 29.85498047 181.73095703 C27.75974639 185.02270467 27.75974639 185.02270467 27.44067383 188.77392578 C28.71974243 192.11259536 31.46267676 194.28080102 34.01171875 196.69140625 C37.6942141 200.22287043 41.01614778 203.75347051 44.19921875 207.75390625 C45.54202139 209.0181676 46.91619702 210.25020916 48.32421875 211.44140625 C54.13779414 216.38842984 54.13779414 216.38842984 54.66796875 219.54296875 C54.04231499 223.82869702 51.89299402 225.51317909 48.69921875 228.12890625 C47.59246477 229.08575501 46.48699966 230.04409656 45.3828125 231.00390625 C44.83866699 231.46925781 44.29452148 231.93460937 43.73388672 232.4140625 C40.37878217 235.34324063 37.3169479 238.57749043 34.19921875 241.75390625 C33.37421875 242.55828125 32.54921875 243.36265625 31.69921875 244.19140625 C30.1830526 245.74547656 28.70212611 247.33656401 27.29296875 248.98828125 C26.60203125 249.7978125 25.91109375 250.60734375 25.19921875 251.44140625 C24.55984375 252.20839844 23.92046875 252.97539062 23.26171875 253.765625 C21.0186522 255.92797514 19.13978476 256.79924333 16.19921875 257.75390625 C14.56750752 256.34497478 12.9440793 254.92644667 11.32421875 253.50390625 C10.41929687 252.715 9.514375 251.92609375 8.58203125 251.11328125 C6.41208045 248.96467423 5.50922591 247.42112804 4.19921875 244.75390625 C3.20921875 244.42390625 2.21921875 244.09390625 1.19921875 243.75390625 C1.19921875 243.09390625 1.19921875 242.43390625 1.19921875 241.75390625 C0.20921875 241.42390625 -0.78078125 241.09390625 -1.80078125 240.75390625 C-1.80078125 240.09390625 -1.80078125 239.43390625 -1.80078125 238.75390625 C-2.79078125 238.42390625 -3.78078125 238.09390625 -4.80078125 237.75390625 C-6.98828125 235.81640625 -6.98828125 235.81640625 -8.80078125 233.75390625 C-8.80078125 233.09390625 -8.80078125 232.43390625 -8.80078125 231.75390625 C-12.78141236 230.58277545 -14.38991123 230.55180005 -18.17578125 232.4140625 C-19.39280734 233.20156968 -20.60079252 234.00317375 -21.80078125 234.81640625 C-33.08926149 242.00099977 -44.81697626 246.45212783 -57.80078125 249.75390625 C-58.62320313 249.96917969 -59.445625 250.18445313 -60.29296875 250.40625 C-92.08697991 258.15674738 -126.8313314 251.09663818 -154.51171875 234.55859375 C-162.10872462 229.89347923 -169.03584782 224.55705202 -175.80078125 218.75390625 C-176.82558594 217.94759766 -176.82558594 217.94759766 -177.87109375 217.125 C-187.54021647 209.31532396 -195.04479446 198.07692257 -201.80078125 187.75390625 C-202.36152344 186.903125 -202.92226562 186.05234375 -203.5 185.17578125 C-222.7781321 154.15748332 -228.92146801 114.1968601 -220.80078125 78.75390625 C-220.53394531 77.51253906 -220.26710937 76.27117187 -219.9921875 74.9921875 C-214.73909201 53.02257482 -203.89145663 31.56923025 -188.80078125 14.75390625 C-188.19621094 14.03074219 -187.59164062 13.30757812 -186.96875 12.5625 C-182.96042557 7.79413211 -178.59849052 3.7172313 -173.80078125 -0.24609375 C-172.640625 -1.220625 -172.640625 -1.220625 -171.45703125 -2.21484375 C-120.65326926 -44.01540741 -49.65630818 -42.91517928 0 0 Z M-146.11328125 49.06640625 C-161.98368492 67.47915614 -169.43985195 90.52487102 -167.80078125 114.75390625 C-166.16124135 134.25396596 -161.17726446 149.84246754 -149.80078125 165.75390625 C-149.17429687 166.65882813 -148.5478125 167.56375 -147.90234375 168.49609375 C-137.60731054 182.43999948 -121.47662014 191.6942451 -104.80078125 195.75390625 C-104.20990723 195.92519043 -103.6190332 196.09647461 -103.01025391 196.27294922 C-98.36713052 197.28366226 -93.53276559 196.98181998 -88.80078125 197.00390625 C-87.72699219 197.02453125 -86.65320313 197.04515625 -85.546875 197.06640625 C-75.9049601 197.11281739 -66.6227868 195.73058574 -58.05078125 191.06640625 C-57.2309375 190.62941406 -56.41109375 190.19242188 -55.56640625 189.7421875 C-54.98375 189.41605469 -54.40109375 189.08992187 -53.80078125 188.75390625 C-55.53935341 184.98699989 -57.703365 182.54158088 -60.80078125 179.75390625 C-61.46078125 179.75390625 -62.12078125 179.75390625 -62.80078125 179.75390625 C-63.00703125 179.19703125 -63.21328125 178.64015625 -63.42578125 178.06640625 C-65.35078899 174.82889323 -67.83929027 173.07159484 -70.80078125 170.75390625 C-70.30931969 166.301382 -68.90323161 164.37794503 -65.72265625 161.28515625 C-64.89121094 160.46660156 -64.05976563 159.64804687 -63.203125 158.8046875 C-62.32785156 157.96292969 -61.45257813 157.12117187 -60.55078125 156.25390625 C-59.69097656 155.41214844 -58.83117187 154.57039062 -57.9453125 153.703125 C-55.57058661 151.37962586 -53.18617353 149.06644152 -50.80078125 146.75390625 C-48.23882442 144.22773094 -45.73985761 141.68784217 -43.30078125 139.04296875 C-42.47578125 138.16382813 -41.65078125 137.2846875 -40.80078125 136.37890625 C-39.56328125 135.03699219 -39.56328125 135.03699219 -38.30078125 133.66796875 C-35.80078125 131.75390625 -35.80078125 131.75390625 -33.4453125 131.5234375 C-29.32682716 133.43971945 -26.58728049 136.55144619 -23.48828125 139.81640625 C-22.84310547 140.47962891 -22.19792969 141.14285156 -21.53320312 141.82617188 C-19.94631107 143.46008296 -18.36951797 145.10258772 -16.80078125 146.75390625 C-13.78046144 143.94351898 -12.63472504 141.32148069 -11.17578125 137.44140625 C-10.53769531 135.77658203 -10.53769531 135.77658203 -9.88671875 134.078125 C-3.54328452 114.65991445 -6.49203737 88.50198451 -15.39453125 70.3984375 C-26.40756347 49.68781857 -41.93219041 32.45891153 -64.92578125 25.25390625 C-95.2242517 16.92760903 -124.69334764 26.6000026 -146.11328125 49.06640625 Z " fill="#D7E6F5" transform="translate(238.80078125,124.24609375)"/>
<path d="M0 0 C1.41089858 1.16956066 2.80641117 2.35788363 4.1875 3.5625 C5.00734375 4.26246094 5.8271875 4.96242187 6.671875 5.68359375 C29.63016726 25.75470683 41.16411127 51.8673668 43.375 82.12890625 C44.12734642 110.67104874 31.99097044 136.85418271 13.2578125 157.7109375 C-5.22450228 177.11353351 -30.39137467 187.27905951 -56.8671875 188.84765625 C-75.26325535 189.28747908 -90.92989854 183.58739349 -104.8125 171.5625 C-106.02371555 170.52298922 -107.23542153 169.48404971 -108.44750977 168.44555664 C-109.07770523 167.90556534 -109.7079007 167.36557404 -110.35719299 166.80921936 C-111.07756996 166.19209328 -111.07756996 166.19209328 -111.8125 165.5625 C-111.81065641 166.12480159 -111.80881283 166.68710318 -111.80691338 167.26644421 C-111.76272692 180.9543137 -111.72976752 194.64217069 -111.70887566 208.33009624 C-111.69843318 214.94950198 -111.68426539 221.56885629 -111.66162109 228.18823242 C-111.63990945 234.57485778 -111.62793487 240.96143362 -111.62274551 247.34809303 C-111.61904676 249.78616935 -111.61182414 252.22424293 -111.60103989 254.6622982 C-111.58654747 258.07399757 -111.58452114 261.48549166 -111.58544922 264.8972168 C-111.57825867 265.90782166 -111.57106812 266.91842651 -111.56365967 267.95965576 C-111.59427938 278.34427938 -111.59427938 278.34427938 -114.8125 281.5625 C-116.39217786 281.6714531 -117.97667395 281.71154958 -119.56005859 281.72363281 C-120.57135834 281.73324036 -121.58265808 281.7428479 -122.62460327 281.75274658 C-123.72559357 281.75699646 -124.82658386 281.76124634 -125.9609375 281.765625 C-127.64613998 281.77417511 -127.64613998 281.77417511 -129.36538696 281.78289795 C-131.74781345 281.7923649 -134.13025312 281.79888862 -136.51269531 281.80273438 C-140.1649451 281.81244006 -143.81663245 281.84344823 -147.46875 281.875 C-149.77864248 281.88152959 -152.08853899 281.88678023 -154.3984375 281.890625 C-156.04385025 281.9091452 -156.04385025 281.9091452 -157.72250366 281.92803955 C-158.74010773 281.92503845 -159.75771179 281.92203735 -160.80615234 281.91894531 C-161.70248383 281.92259094 -162.59881531 281.92623657 -163.52230835 281.92999268 C-166.33495321 281.47866521 -167.04568338 280.75013067 -168.8125 278.5625 C-169.11312654 275.65244904 -169.22828013 272.95482702 -169.21122742 270.04292297 C-169.21787424 269.16203371 -169.22452107 268.28114444 -169.23136932 267.37356156 C-169.2500864 264.4081861 -169.24738782 261.44321117 -169.24487305 258.4777832 C-169.25388747 256.35507129 -169.26421389 254.23236459 -169.27575684 252.10966492 C-169.3034595 246.32220386 -169.31263452 240.53484114 -169.31861091 234.74732232 C-169.32800644 228.65875412 -169.35423277 222.57025852 -169.37861633 216.48173523 C-169.42241611 204.89889848 -169.45085601 193.31607568 -169.47393972 181.73318118 C-169.5006468 168.71553793 -169.54474497 155.69797326 -169.59022844 142.68038428 C-169.68625735 114.96644701 -169.76301603 87.2524953 -169.80749464 59.53842592 C-169.8124621 56.58503244 -169.81816594 53.63164117 -169.82403946 50.67824936 C-169.83300675 46.06234807 -169.83947305 41.44644973 -169.84396517 36.83054197 C-169.84588919 35.16812834 -169.84853836 33.50571535 -169.85203111 31.84330428 C-169.92828505 -5.97435982 -169.92828505 -5.97435982 -167.8125 -14.4375 C-149.9925 -14.4375 -132.1725 -14.4375 -113.8125 -14.4375 C-111.5625 -6.5625 -111.5625 -6.5625 -111.1875 -2.5 C-111.11273438 -1.72785156 -111.03796875 -0.95570313 -110.9609375 -0.16015625 C-110.91195312 0.40832031 -110.86296875 0.97679687 -110.8125 1.5625 C-105.54403576 -2.3343714 -105.54403576 -2.3343714 -100.4375 -6.4375 C-71.1816643 -28.72766054 -27.93765788 -21.1991735 0 0 Z M-96.6875 49.8125 C-107.07638119 63.37937526 -109.214881 77.42306649 -107.125 94.0625 C-104.77246217 107.79934677 -98.23597967 119.44082342 -86.8125 127.5625 C-74.57942523 134.54384344 -61.28918807 137.1639946 -47.375 133.5 C-33.88861471 128.54724127 -24.54863551 118.95280107 -17.8125 106.5625 C-11.73812 92.59585986 -12.47209115 76.9837327 -17.80859375 62.94140625 C-20.91293561 56.05599749 -25.52173638 50.8809157 -30.8125 45.5625 C-31.36679687 44.97339844 -31.92109375 44.38429688 -32.4921875 43.77734375 C-40.76867513 35.72732718 -53.31014345 33.15181158 -64.49609375 33.2890625 C-77.25841247 34.34131493 -88.36427779 40.18448223 -96.6875 49.8125 Z " fill="#D7E6F5" transform="translate(500.8125,190.4375)"/>
<path d="M0 0 C8.53619235 -0.0926956 17.07217429 -0.16376219 25.60874557 -0.20724869 C29.57267793 -0.22812052 33.53626587 -0.25642999 37.5 -0.30175781 C41.32552727 -0.34523119 45.15072334 -0.36914015 48.97647858 -0.37950897 C50.43575505 -0.38689778 51.89501346 -0.40132665 53.35414886 -0.42292023 C55.398932 -0.45197624 57.4423482 -0.45595541 59.48730469 -0.45410156 C60.65090515 -0.46298401 61.81450562 -0.47186646 63.0133667 -0.48101807 C67.82945092 0.29464579 69.41023847 3.21572063 72.2265625 6.9609375 C73.02979553 8.09631191 73.82907981 9.23448722 74.625 10.375 C75.51559497 11.63543789 76.40622081 12.89585396 77.296875 14.15625 C77.74740234 14.79691406 78.19792969 15.43757812 78.66210938 16.09765625 C84.49892464 24.39701109 90.42166394 32.62545523 96.5 40.75 C97.01675293 41.44206543 97.53350586 42.13413086 98.06591797 42.84716797 C98.54947754 43.49057129 99.03303711 44.13397461 99.53125 44.796875 C99.95986328 45.36760742 100.38847656 45.93833984 100.83007812 46.52636719 C102.07136419 48.14745523 102.07136419 48.14745523 104 50 C110.27158627 41.70568591 116.48670416 33.37661246 122.5625 24.9375 C123.09875 24.19330811 123.635 23.44911621 124.1875 22.68237305 C126.32922165 19.70937629 128.4704563 16.73603041 130.61035156 13.76171875 C132.13185115 11.65055604 133.65891926 9.54353891 135.1875 7.4375 C135.64519775 6.79997803 136.10289551 6.16245605 136.57446289 5.50561523 C139.77159751 1.11420124 139.77159751 1.11420124 142 0 C144.09355019 -0.09167789 146.19009177 -0.11750933 148.28564453 -0.11352539 C148.92967224 -0.11367142 149.57369995 -0.11381744 150.23724365 -0.1139679 C152.36913402 -0.1132704 154.50093737 -0.10548566 156.6328125 -0.09765625 C158.10968986 -0.09579149 159.58656784 -0.09436786 161.06344604 -0.09336853 C164.95312199 -0.08954792 168.84276067 -0.07972152 172.73242188 -0.06866455 C176.70051571 -0.05844064 180.66861555 -0.05386881 184.63671875 -0.04882812 C192.42449616 -0.03809885 200.21224286 -0.02102789 208 0 C207.30027493 3.05957445 206.52870045 4.91307195 204.5625 7.375 C201.78156899 10.95799622 199.11963151 14.61078954 196.5 18.3125 C192.39694117 24.08928969 188.21279702 29.80283963 184 35.5 C179.95601111 40.96965717 175.93520849 46.45150366 172 52 C166.85304288 59.25546591 161.56230145 66.40335026 156.27734375 73.55859375 C153.03586893 77.94760812 149.80485101 82.34337046 146.625 86.77734375 C145.5760996 88.21201762 144.49437912 89.62351806 143.375 91.00390625 C141.26192544 93.6624756 139.98678993 95.28462372 140.05078125 98.75 C141.29786802 103.01986088 143.49158501 105.75429634 146.25 109.1875 C150.87498232 115.13291095 155.23945862 121.18352259 159.4375 127.4375 C164.1777647 134.46290656 169.14763391 141.24712388 174.34008789 147.94384766 C177.61442444 152.17087128 180.79570522 156.44151602 183.875 160.8125 C188.68847237 167.64250876 193.70211679 174.31677525 198.73583984 180.9855957 C199.94024768 182.58260673 201.14125993 184.18218594 202.33837891 185.78466797 C203.4113236 187.2151558 204.49618194 188.63681998 205.59521484 190.04736328 C206.80784021 191.64204297 207.9159128 193.31529868 209 195 C208.67 195.99 208.34 196.98 208 198 C199.5495383 198.12461661 191.10158522 198.18915747 182.65031528 198.17878246 C178.7250181 198.17581368 174.80201613 198.19288169 170.87719727 198.25708008 C167.08311204 198.31838064 163.29233496 198.32529788 159.49790764 198.29583168 C158.05666765 198.29394024 156.61526327 198.31105714 155.17450142 198.34822655 C143.91921098 198.61991768 143.91921098 198.61991768 139.14199829 194.58769226 C136.85738918 191.82170085 134.89618366 189.04155174 133 186 C132.13901541 184.82552391 131.27081588 183.65624571 130.390625 182.49609375 C129.68421875 181.48675781 128.9778125 180.47742188 128.25 179.4375 C127.41712828 178.25748655 126.583768 177.07781783 125.75 175.8984375 C125.31300781 175.27807617 124.87601563 174.65771484 124.42578125 174.01855469 C121.71908137 170.18653506 118.98660493 166.37319501 116.25 162.5625 C115.71922852 161.81734131 115.18845703 161.07218262 114.64160156 160.30444336 C111.3035035 155.65956643 107.77944059 151.2943045 104 147 C99.41627729 151.2643296 95.85142145 156.06352586 92.1875 161.125 C91.56584961 161.97666748 90.94419922 162.82833496 90.30371094 163.70581055 C88.53207846 166.13451977 86.7658057 168.56705332 85 171 C84.22785156 172.05574219 83.45570313 173.11148438 82.66015625 174.19921875 C78.47085488 179.93059424 74.34353471 185.70566465 70.23535156 191.49536133 C67.10770907 195.89229093 67.10770907 195.89229093 66 197 C63.94521547 197.12380838 61.8862104 197.17798203 59.82788086 197.20532227 C59.18399918 197.21522186 58.54011749 197.22512146 57.87672424 197.23532104 C55.73946869 197.26701528 53.60219087 197.29172449 51.46484375 197.31640625 C49.98653064 197.33696896 48.50822351 197.35796524 47.02992249 197.37937927 C43.13207829 197.43467059 39.23418042 197.48404857 35.33624268 197.53222656 C31.36148277 197.58239019 27.38680116 197.63810301 23.41210938 197.69335938 C15.60813915 197.80102724 7.80410398 197.90245287 0 198 C-0.58618164 196.13305664 -0.58618164 196.13305664 -1 194 C0.37890625 191.87109375 0.37890625 191.87109375 2.5625 189.4375 C6.86185722 184.42491608 10.85059675 179.26720501 14.75 173.9375 C15.34820557 173.12144287 15.94641113 172.30538574 16.56274414 171.46459961 C21.10164225 165.25733666 25.60460716 159.02413534 30.09570312 152.78222656 C34.10378076 147.21815767 38.16924518 141.69841307 42.25 136.1875 C46.97309615 129.80780032 51.55768076 123.35831084 56.03515625 116.8046875 C57.90619577 114.13389947 59.85619182 111.5602349 61.875 109 C66.44402886 103.90830784 66.44402886 103.90830784 67.73803711 97.61889648 C66.94615228 94.80892341 65.9509517 93.16149274 64.19140625 90.84765625 C63.61406738 90.07808594 63.03672852 89.30851562 62.44189453 88.515625 C61.82169434 87.70609375 61.20149414 86.8965625 60.5625 86.0625 C59.27910736 84.35610062 57.99656074 82.64906462 56.71484375 80.94140625 C56.08175293 80.1023877 55.44866211 79.26336914 54.79638672 78.39892578 C52.35309785 75.13611572 49.98054721 71.82644641 47.625 68.5 C44.19694566 63.67540695 40.7377683 58.87536782 37.25 54.09375 C34.38464096 50.15388132 31.53684292 46.20145898 28.6875 42.25 C24.05138943 35.8227414 19.38997742 29.41503412 14.69018555 23.03417969 C13.86980026 21.9194406 13.05112935 20.80343731 12.234375 19.68603516 C11.35426433 18.48389032 10.46818578 17.28610515 9.578125 16.09130859 C6 11.22289765 6 11.22289765 6 9 C5.34 9 4.68 9 4 9 C0 3.70588235 0 3.70588235 0 0 Z " fill="#D7E6F5" transform="translate(652,176)"/>
<path d="M0 0 C8.43202362 -0.30251187 16.86174823 -0.53281465 25.29787254 -0.67355824 C29.21633131 -0.74114736 33.13105506 -0.83261979 37.04736328 -0.98071289 C40.83434639 -1.12300331 44.6177638 -1.19988901 48.40721512 -1.23340416 C49.84530431 -1.25725023 51.28321845 -1.3038293 52.71976852 -1.37449074 C63.64087212 -1.88983284 63.64087212 -1.88983284 67.57615089 1.26261139 C70.95940004 4.80869797 73.46178605 8.82781607 76 13 C77.12888779 14.57125401 78.26951831 16.13432179 79.43359375 17.6796875 C80.43688144 19.07670114 81.4382003 20.47513093 82.4375 21.875 C83.53596963 23.40529883 84.63493726 24.93524031 85.734375 26.46484375 C86.27513672 27.21749512 86.81589844 27.97014648 87.37304688 28.74560547 C90.4121544 32.95675776 93.4920066 37.13802999 96.57397461 41.31787109 C98.4370224 43.84854947 100.25641366 46.3846205 102 49 C106.54296399 47.46073691 108.75047444 43.72220204 111.4375 40 C111.95610596 39.29520508 112.47471191 38.59041016 113.0090332 37.86425781 C114.68269932 35.58328355 116.34294134 33.29306267 118 31 C118.55494141 30.23365234 119.10988281 29.46730469 119.68164062 28.67773438 C121.90055495 25.61155125 124.11674452 22.54344787 126.3269043 19.47094727 C138.64151472 2.35848528 138.64151472 2.35848528 141 0 C143.08619022 -0.09417773 145.17560477 -0.11742878 147.26391602 -0.11352539 C148.2443689 -0.11374443 148.2443689 -0.11374443 149.24462891 -0.1139679 C151.41442128 -0.11326883 153.58412879 -0.10547678 155.75390625 -0.09765625 C157.25463311 -0.09579205 158.75536057 -0.09436816 160.25608826 -0.09336853 C164.21318226 -0.08954352 168.17023978 -0.0797134 172.12731934 -0.06866455 C176.16234849 -0.05845006 180.19738353 -0.05387083 184.23242188 -0.04882812 C192.15496469 -0.03809111 200.07747781 -0.0210149 208 0 C206.40867967 4.22403893 204.45668111 7.21268961 201.625 10.75 C197.60441656 15.84880727 193.78294104 21.05344813 190.0625 26.375 C185.84765753 32.39514735 181.56959845 38.35899396 177.20849609 44.27392578 C173.66970222 49.07666453 170.17297323 53.90845412 166.6875 58.75 C162.6429716 64.3662206 158.56818232 69.95830705 154.45458984 75.52416992 C152.13101965 78.66846207 149.81607667 81.81906601 147.50048828 84.96923828 C146.18687203 86.74708729 144.86014943 88.51387908 143.52734375 90.27734375 C142.87894531 91.15519531 142.23054688 92.03304687 141.5625 92.9375 C141.02753906 93.64777344 140.49257812 94.35804688 139.94140625 95.08984375 C138.8333758 96.93780458 138.8333758 96.93780458 139.125 98.94921875 C140.2431981 101.56999556 141.71877414 103.59950379 143.4375 105.875 C146.56580138 110.07380167 149.65538794 114.29383851 152.6875 118.5625 C162.73706062 132.65765798 172.92005341 146.65137861 183.20751953 160.57373047 C187.42719378 166.28540613 191.64103452 172.0013615 195.84765625 177.72265625 C197.76021577 180.32298066 199.6822783 182.91529646 201.62109375 185.49609375 C202.34425781 186.46675781 203.06742188 187.43742188 203.8125 188.4375 C204.41707031 189.24058594 205.02164062 190.04367187 205.64453125 190.87109375 C206.97252251 192.95684371 207.57565352 194.58067398 208 197 C198.21507882 198.8034575 188.19045199 198.4902849 178.26872063 198.51997471 C174.72241385 198.53186964 171.18227468 198.5739664 167.63769531 198.68920898 C144.80801301 199.4034208 144.80801301 199.4034208 138.57589722 195.47003174 C134.75945022 191.87212211 132.2921518 187.76125268 130.04606628 183.05969238 C128.33694726 179.69445684 126.06798516 176.76327595 123.8125 173.75 C122.99837781 172.60885144 122.18678737 171.46588793 121.37890625 170.3203125 C118.34241035 166.06000542 115.20162371 161.88148015 112.04296875 157.7109375 C110.73738179 155.97847602 109.44669655 154.23461665 108.17578125 152.4765625 C107.64339844 151.74179687 107.11101562 151.00703125 106.5625 150.25 C106.11003906 149.61578125 105.65757812 148.9815625 105.19140625 148.328125 C104.79824219 147.88984375 104.40507813 147.4515625 104 147 C103.34 147 102.68 147 102 147 C100.47397764 148.92532638 99.07420541 150.85177855 97.6875 152.875 C96.7871222 154.16192305 95.88604551 155.44835734 94.984375 156.734375 C94.50291016 157.42466797 94.02144531 158.11496094 93.52539062 158.82617188 C90.86474648 162.61784528 88.15109934 166.37112804 85.4375 170.125 C84.88602295 170.88828613 84.3345459 171.65157227 83.76635742 172.43798828 C79.24951393 178.67805549 74.72207448 184.91295086 70 191 C69.16239136 192.5466333 69.16239136 192.5466333 68.30786133 194.12451172 C66.2733049 196.52937763 65.14993125 196.9737097 61.99887085 197.52624512 C58.01044759 197.69667822 54.06345363 197.6748207 50.07421875 197.5859375 C48.60164623 197.57473913 47.12905128 197.56620196 45.65644836 197.56021118 C41.79085981 197.53736215 37.92663587 197.47847637 34.06158447 197.4119873 C30.11350972 197.35047785 26.16521323 197.32317791 22.21679688 197.29296875 C14.47724417 197.22872622 6.73881368 197.12639828 -1 197 C0.22162391 193.86814912 1.41738227 191.13624521 3.36328125 188.390625 C3.83121094 187.72740234 4.29914062 187.06417969 4.78125 186.38085938 C5.2865625 185.67767578 5.791875 184.97449219 6.3125 184.25 C6.84230469 183.50556641 7.37210938 182.76113281 7.91796875 181.99414062 C12.19646867 176.02332324 16.64472945 170.19265196 21.13745117 164.38232422 C25.4576219 158.77209803 29.5662244 153.03450357 33.62329102 147.23217773 C37.27067633 142.01793673 40.99806025 136.87046403 44.7746582 131.74926758 C49.02867063 125.97656584 53.22468862 120.16281286 57.40991211 114.34008789 C57.92046143 113.63102295 58.43101074 112.92195801 58.95703125 112.19140625 C59.45283691 111.49805176 59.94864258 110.80469727 60.45947266 110.09033203 C61.52503942 108.64447108 62.62652021 107.22464857 63.75537109 105.82763672 C64.31434082 105.13041504 64.87331055 104.43319336 65.44921875 103.71484375 C65.96186279 103.09601318 66.47450684 102.47718262 67.00268555 101.83959961 C68.19563118 100.0500267 68.19563118 100.0500267 67.79882812 97.98291016 C66.97609294 95.94065614 66.05046962 94.34745994 64.76953125 92.55859375 C64.30361572 91.9025415 63.8377002 91.24648926 63.35766602 90.57055664 C62.84776123 89.86664795 62.33785645 89.16273926 61.8125 88.4375 C61.28003662 87.69298584 60.74757324 86.94847168 60.19897461 86.18139648 C55.03754923 78.98983541 49.7725765 71.87384268 44.5078125 64.7578125 C39.48809313 57.96414481 34.55681714 51.10694849 29.62207031 44.25146484 C27.96660712 41.95365004 26.30803543 39.65811124 24.6484375 37.36328125 C24.09542969 36.59846436 23.54242187 35.83364746 22.97265625 35.0456543 C21.87657266 33.52999635 20.78022378 32.01453021 19.68359375 30.49926758 C17.13828004 26.97806877 14.60479921 23.44970057 12.1015625 19.8984375 C11.64998779 19.25938477 11.19841309 18.62033203 10.7331543 17.96191406 C9.9004702 16.78137607 9.0709329 15.59860875 8.24536133 14.41308594 C6.56273584 12.02927515 4.952833 9.95724191 2.78515625 7.9921875 C0.48343529 5.42352735 0.4538057 3.35947422 0 0 Z " fill="#D7E6F5" transform="translate(894,176)"/>
<path d="M0 0 C1.61672607 -0.00472824 1.61672607 -0.00472824 3.26611328 -0.009552 C4.43899902 -0.00752777 5.61188477 -0.00550354 6.8203125 -0.00341797 C8.0151123 -0.00437469 9.20991211 -0.00533142 10.44091797 -0.00631714 C12.9729823 -0.00699918 15.50504838 -0.00514325 18.03710938 -0.00097656 C21.9284251 0.00437132 25.81962539 -0.00092079 29.7109375 -0.00732422 C32.16406276 -0.00666344 34.61718794 -0.00538229 37.0703125 -0.00341797 C38.24319824 -0.0054422 39.41608398 -0.00746643 40.62451172 -0.009552 C41.7023291 -0.00639984 42.78014648 -0.00324768 43.890625 0 C44.84469238 0.00079559 45.79875977 0.00159119 46.78173828 0.00241089 C48.9453125 0.12939453 48.9453125 0.12939453 49.9453125 1.12939453 C50.03916117 2.71563848 50.06275012 4.30608289 50.05883789 5.89509583 C50.05873215 7.44571716 50.05873215 7.44571716 50.05862427 9.02766418 C50.05087479 10.74634956 50.05087479 10.74634956 50.04296875 12.49975586 C50.04150848 13.70074921 50.04004822 14.90174255 50.0385437 16.13912964 C50.03471969 18.77020586 50.02907029 21.40120828 50.02047729 24.03226662 C50.00684234 28.26204297 50.00103011 32.49180897 49.99633789 36.72160339 C49.98337294 47.28577263 49.95948932 57.84991478 49.93493652 68.4140625 C49.91294871 77.94836176 49.89562183 87.48265353 49.88536453 97.01697302 C49.8828123 99.2115943 49.87952828 101.40621368 49.87619019 103.60083389 C49.8543971 119.67021869 49.92947079 135.73212619 50.23828125 151.79882812 C50.25831491 152.85984704 50.25831491 152.85984704 50.27875328 153.94230068 C50.41902986 161.32968146 50.57856124 168.71612153 50.76538086 176.10249329 C50.81762347 178.46131216 50.86979259 180.82013266 50.921875 183.17895508 C50.95407639 184.25287443 50.98627777 185.32679379 51.01945496 186.43325615 C51.04970512 187.89923083 51.04970512 187.89923083 51.08056641 189.39482117 C51.10277252 190.24235301 51.12497864 191.08988485 51.14785767 191.96309948 C50.9453125 194.12939453 50.9453125 194.12939453 48.9453125 197.12939453 C46.65475464 197.49015808 46.65475464 197.49015808 43.76123047 197.4699707 C42.13977615 197.46963081 42.13977615 197.46963081 40.48556519 197.46928406 C39.31470367 197.4538002 38.14384216 197.43831635 36.9375 197.42236328 C35.74174347 197.41811844 34.54598694 197.4138736 33.31399536 197.40950012 C29.48254179 197.39266355 25.65160797 197.35500137 21.8203125 197.31689453 C19.22787216 197.30185417 16.63542361 197.28816465 14.04296875 197.27587891 C7.67690502 197.24274371 1.31114588 197.19249484 -5.0546875 197.12939453 C-7.16063516 192.84109291 -7.32207394 188.96593936 -7.26396179 184.28375244 C-7.26229266 183.50022738 -7.26062352 182.71670232 -7.2589038 181.90943408 C-7.25083753 179.28762928 -7.22830633 176.66615132 -7.20581055 174.04443359 C-7.19702018 172.16357294 -7.18910737 170.282708 -7.18200684 168.40184021 C-7.16011069 163.29677783 -7.12555679 158.19187158 -7.08847785 153.08689976 C-7.05157534 147.75025023 -7.02535945 142.41354749 -6.99775696 137.07684326 C-6.94982413 128.1188857 -6.89405647 119.16100395 -6.83325195 110.203125 C-6.76291581 99.83242358 -6.70313575 89.46170431 -6.64939278 79.09090447 C-6.59215001 68.06402333 -6.52733865 57.03719625 -6.46023583 46.01037121 C-6.44136264 42.82515894 -6.42390251 39.63994147 -6.406744 36.45471954 C-6.3794611 31.46101147 -6.34712166 26.46736115 -6.31078339 21.47371101 C-6.29818502 19.63582255 -6.2872934 17.79792151 -6.27818489 15.96001244 C-6.26551106 13.46231785 -6.24676566 10.96474366 -6.22636414 8.46710205 C-6.22402179 7.73025437 -6.22167944 6.99340668 -6.21926612 6.23423028 C-6.15941174 0.30722155 -5.84033145 0.00487023 0 0 Z " fill="#D7E6F5" transform="translate(573.0546875,175.87060546875)"/>
<path d="M0 0 C7.69769992 5.17553688 12.44572193 11.5842747 14.58984375 20.60546875 C15.68670855 27.60568455 14.65261653 34.26764402 11.4375 40.57421875 C5.38628291 47.74013373 -0.50400788 52.73357234 -10.015625 53.69921875 C-19.39984145 54.0483989 -25.73319813 52.09095831 -33.125 46.38671875 C-38.54098145 41.33976209 -43.14745674 33.81840688 -43.5 26.26171875 C-41.98699223 15.83877637 -38.8606442 9.59796646 -30.9375 2.38671875 C-22.23317168 -4.04396436 -9.63433463 -5.04739957 0 0 Z " fill="#D7E6F5" transform="translate(608.9375,101.61328125)"/>
<path d="M0 0 C2.02001233 3.0300185 2.25078291 3.59904021 2.26069641 6.99183655 C2.26778122 7.80082901 2.27486603 8.60982147 2.28216553 9.44332886 C2.27968811 10.32707184 2.27721069 11.21081482 2.2746582 12.12133789 C2.27976913 13.05490616 2.28488007 13.98847443 2.29014587 14.95033264 C2.30406486 18.04117207 2.3030837 21.13178918 2.30078125 24.22265625 C2.30466622 26.36592187 2.30900048 28.50918672 2.31376648 30.65245056 C2.32123316 35.14568579 2.32093365 39.63884245 2.31567383 44.13208008 C2.3098713 49.90172332 2.32682704 55.67104637 2.3500185 61.44063663 C2.36471797 65.86630649 2.36563285 70.29189849 2.36250877 74.71758842 C2.36302365 76.84554111 2.36829244 78.97349796 2.37832069 81.10142708 C2.39059778 84.07051837 2.38394671 87.03897621 2.37231445 90.00805664 C2.37995819 90.89382385 2.38760193 91.77959106 2.39547729 92.69219971 C2.3742218 95.13514709 2.3742218 95.13514709 2 99 C0.515 99.99 0.515 99.99 -1 101 C-1.023121 87.9788936 -1.04091384 74.95779205 -1.05181217 61.93666935 C-1.05704153 55.89112183 -1.06414014 49.8455883 -1.07543945 43.80004883 C-1.08626645 37.97105712 -1.09227643 32.14207891 -1.09487724 26.31307793 C-1.09673183 24.0838239 -1.10035308 21.85457065 -1.10573006 19.62532234 C-1.11293799 16.51460266 -1.11399105 13.40393951 -1.11352539 10.29321289 C-1.11712067 9.36173431 -1.12071594 8.43025574 -1.12442017 7.47055054 C-1.11405216 1.11405216 -1.11405216 1.11405216 0 0 Z " fill="#E3EAF3" transform="translate(387,367)"/>
<path d="M0 0 C1.98 0 3.96 0 6 0 C5.34 0.99 4.68 1.98 4 3 C1.5196228 3.36076355 1.5196228 3.36076355 -1.64306641 3.34057617 C-2.82413971 3.34034958 -4.00521301 3.34012299 -5.22207642 3.33988953 C-7.14242203 3.31666374 -7.14242203 3.31666374 -9.1015625 3.29296875 C-10.40829926 3.28872391 -11.71503601 3.28447906 -13.06137085 3.28010559 C-16.53691786 3.26864632 -20.01208927 3.23917049 -23.48748779 3.20599365 C-27.0332735 3.17531569 -30.57911985 3.16160516 -34.125 3.14648438 C-41.08348771 3.11430135 -48.04172583 3.06309229 -55 3 C-55 2.67 -55 2.34 -55 2 C-36.85 2 -18.7 2 0 2 C0 1.34 0 0.68 0 0 Z " fill="#D1DEE9" transform="translate(714,370)"/>
<path d="M0 0 C0.33 0.66 0.66 1.32 1 2 C8.92 2 16.84 2 25 2 C19.06511497 5.95659002 12.92425735 5.48877111 6 5 C3.08792 4.25685792 0.73269839 3.28597571 -2 2 C-1.34 1.34 -0.68 0.68 0 0 Z " fill="#D5DFEB" transform="translate(583,150)"/>
<path d="M0 0 C0.33 0.66 0.66 1.32 1 2 C0.67 2.66 0.34 3.32 0 4 C-4.29 3.34 -8.58 2.68 -13 2 C-13 1.67 -13 1.34 -13 1 C-8.62426048 0.40667939 -4.42471556 -0.13827236 0 0 Z " fill="#D3DEEE" transform="translate(176,146)"/>
<path d="M0 0 C0.66 0.33 1.32 0.66 2 1 C0.90033225 2.29549899 -0.20491801 3.58626071 -1.3125 4.875 C-1.92738281 5.59429687 -2.54226563 6.31359375 -3.17578125 7.0546875 C-5 9 -5 9 -8 11 C-8.99 10.67 -9.98 10.34 -11 10 C-10.195625 9.566875 -9.39125 9.13375 -8.5625 8.6875 C-5.72153646 7.19525998 -5.72153646 7.19525998 -5 4 C-4.01 4 -3.02 4 -2 4 C-1.34 2.68 -0.68 1.36 0 0 Z " fill="#CDD5DE" transform="translate(619,140)"/>
</svg>
